<?xml version="1.0" encoding="utf-8"?>
<!-- Generator: Adobe Illustrator 27.5.0, SVG Export Plug-In . SVG Version: 6.00 Build 0)  -->
<svg version="1.1" xmlns="http://www.w3.org/2000/svg" xmlns:xlink="http://www.w3.org/1999/xlink" x="0px" y="0px"
	 viewBox="0 0 500 500" style="enable-background:new 0 0 500 500;" xml:space="preserve">
<g id="BACKGROUND_1_">
	<rect style="fill:#FFFFFF;" width="500" height="500"/>
</g>
<g id="OBJECTS">
	<path style="fill:#DDD6C7;" d="M220.166,30.415c133.639,3.897,130.472,103.093,199.488,171.436
		c64.484,47.112,56.819,108.97,43.819,150.776c-26.535,85.335-150.702,130.641-256.904,101.235
		C95.271,430.634,37.561,314.333,44.192,214.937C50.121,126.044,133.525,22.302,220.166,30.415z"/>
	<g>
		<path style="fill:#EFB348;" d="M166.696,225.961c0,0-15.122,4.565-21.114,3.709s-20.258-21.114-19.117-26.535
			c1.141-5.421,39.09-1.141,39.09-1.141L166.696,225.961z"/>
		<path style="fill:#353433;" d="M273.05,95.55c-1.168,1.529-2.583,2.877-3.564,4.531c-0.982,1.654-1.478,3.769-0.636,5.499
			c0.842,1.73,3.38,2.603,4.799,1.304c1.594,2.398,4.413,3.933,7.292,3.972s5.738-1.421,7.396-3.776
			c2.529,1.223,5.343,1.854,8.153,1.827c1.122-0.011,2.275-0.133,3.272-0.649c0.997-0.516,1.814-1.492,1.878-2.612
			c1,1.365,2.705,2.085,4.391,2.221c1.686,0.136,3.372-0.247,4.993-0.73c2.326-0.693,4.695-1.672,6.227-3.555
			c1.532-1.883,1.911-4.89,0.257-6.666c-0.81-0.87-1.959-1.324-2.967-1.956c-1.817-1.139-3.218-2.927-3.89-4.964
			c-0.564-1.711-0.718-3.731-2.107-4.878c-1.166-0.963-2.823-0.973-4.335-0.93c-5.128,0.144-10.276,0.343-15.319,1.282
			c-3.693,0.688-7.337,1.783-10.692,3.49c-1.156,0.588-2.338,1.126-3.005,2.274C274.369,92.652,274.087,94.192,273.05,95.55z"/>
		<path style="fill:#EFB348;" d="M286.026,162.92c0,0-25.83,28.005-44.098,41.356c-18.275,13.351-76.141,22.329-76.141,22.329
			l-3.718-30.404c0,0,40.395-11.041,53.761-16.607c0.35-0.149,0.678-0.291,0.991-0.425c1.125-0.499,2.399-1.266,3.77-2.257
			c13.53-9.715,37.326-40.425,37.326-40.425L286.026,162.92z"/>
		<path style="fill:#D8932E;" d="M363.337,336.16l-16.361,37.281c0,0-29.302-9.7-58.998-20.332
			c-27.335-9.797-54.99-20.384-60.459-24.936c-9.7-8.083-15.556-17.881-12.964-29.913c2.593-12.04,29.19-54.931,29.19-54.931
			l51.98,16.085l-14.863,27.015c0,0,5.662,4.887,24.117,12.695c2.459,1.043,5.297,2.459,8.374,4.142
			C333.358,314.197,363.337,336.16,363.337,336.16z"/>
		<path style="fill:#5FB277;" d="M363.337,336.16l-0.678,1.542l-1.177,2.682l-2.377,5.416l-1.17,2.675l-2.28,5.193l-1.162,2.652
			l-1.691,3.844l-1.155,2.622l-1.788,4.09l-1.147,2.608l-1.736,3.956c0,0-23.848-7.897-50.319-17.247
			c-2.868-1.013-5.774-2.041-8.68-3.084l2.391-4.694l1.289-2.541l3.047-5.983l1.304-2.555l3.382-6.646l1.311-2.578l3.897-7.651
			l1.11-2.176l3.42-6.728l1.267-2.481l2.958-5.811c2.034,1.11,4.165,2.332,6.362,3.636
			C339.139,318.428,363.337,336.16,363.337,336.16z"/>
		<g>
			<g>
				<path style="fill:#45995B;" d="M362.659,337.702l-1.177,2.682c-2.697-1.483-5.387-2.965-8.083-4.448
					c-14.677-8.076-29.361-16.152-44.046-24.228c-0.082-0.045-0.156-0.097-0.224-0.149l1.267-2.481
					c0.209,0.03,0.417,0.097,0.633,0.216c4.194,2.31,8.389,4.619,12.583,6.921C336.628,323.375,349.651,330.543,362.659,337.702z"/>
			</g>
			<g>
				<path style="fill:#45995B;" d="M359.106,345.801l-1.17,2.675c-1.952-1.021-3.897-2.041-5.849-3.055
					c-15.653-8.173-31.306-16.353-46.959-24.526c-0.231-0.127-0.41-0.268-0.529-0.432l1.11-2.176
					c0.335-0.052,0.715-0.007,1.095,0.194c4.425,2.317,8.851,4.626,13.284,6.936C333.089,332.211,346.098,339.006,359.106,345.801z"
					/>
			</g>
			<g>
				<path style="fill:#45995B;" d="M300.703,328.114c0.052,0.022,0.112,0.045,0.164,0.067c4.753,2.213,9.507,4.418,14.252,6.631
					c13.515,6.288,27.022,12.568,40.537,18.856l-1.162,2.652c-1.609-0.753-3.219-1.497-4.82-2.242
					c-16.763-7.8-33.519-15.601-50.282-23.386L300.703,328.114z"/>
			</g>
			<g>
				<path style="fill:#45995B;" d="M349.86,366.877l-1.147,2.608c-3.658-1.326-7.324-2.652-10.989-3.971
					c-15.787-5.699-31.567-11.391-47.354-17.098l1.289-2.541c3.911,1.408,7.815,2.816,11.727,4.224
					C318.874,355.695,334.371,361.282,349.86,366.877z"/>
			</g>
			<g>
				<path style="fill:#45995B;" d="M352.803,360.165l-1.155,2.622c-2.146-0.842-4.291-1.699-6.437-2.563
					c-16.845-6.772-33.533-13.813-50.505-20.332l1.304-2.555c4.314,1.654,8.605,3.345,12.889,5.059
					C323.576,348.259,338.118,354.339,352.803,360.165z"/>
			</g>
		</g>
		<path style="fill:#45995B;" d="M319.716,306.903l-23.058,49.291c-2.868-1.013-5.774-2.041-8.68-3.084l25.375-49.842
			C315.388,304.377,317.518,305.599,319.716,306.903z"/>
		<path style="fill:#EFB348;" d="M292.992,312.684c0.879,16.778,1.423,35.895,1.758,53.605c0.052,2.786,0.097,5.535,0.142,8.24
			c0.454,28.624,0.38,51.667,0.38,51.667l-43.994-1.14c0,0-3.636-23.014-6.802-49.954c-0.32-2.712-0.633-5.461-0.931-8.233
			c-2.526-22.902-4.433-47.19-3.36-61.874c2.607-35.754,53.224-84.806,53.224-84.806l51.459,24.407
			C343.624,244.597,292.664,306.367,292.992,312.684z"/>
		<path style="fill:#5FB277;" d="M295.272,426.196l-3.375-0.089l-2.794-0.067l-5.632-0.149l-2.801-0.075l-4.738-0.119l-2.801-0.075
			l-6.765-0.179l-2.801-0.067l-5.081-0.134l-2.801-0.074l-4.403-0.112c0,0-3.636-23.014-6.802-49.954
			c-0.015-0.149-0.037-0.298-0.052-0.447c0-0.022-0.007-0.052-0.007-0.075c-0.305-2.54-0.589-5.111-0.872-7.711l6.608-0.075
			l2.794-0.03l7.197-0.082l2.794-0.037l8.069-0.09l2.794-0.03l5.767-0.067l2.794-0.03l5.394-0.06l2.786-0.037l4.209-0.045
			c0.045,2.376,0.082,4.716,0.119,7.025c0.007,0.104,0.007,0.209,0.007,0.313c0.007,0.298,0.007,0.604,0.015,0.902
			C295.346,403.153,295.272,426.196,295.272,426.196z"/>
		<g>
			<g>
				<path style="fill:#45995B;" d="M291.897,426.107l-2.794-0.067c-0.052-2.146-0.097-4.291-0.149-6.437
					c-0.395-17.746-0.797-35.486-1.199-53.232l2.786-0.037c0.119,4.947,0.223,9.901,0.343,14.856
					C291.219,396.164,291.562,411.132,291.897,426.107z"/>
			</g>
			<g>
				<path style="fill:#45995B;" d="M283.471,425.891l-2.801-0.075c-0.022-1.363-0.052-2.727-0.075-4.09
					c-0.343-18.424-0.678-36.841-1.028-55.266l2.794-0.03c0.097,5.029,0.194,10.05,0.283,15.079
					C282.919,396.306,283.195,411.095,283.471,425.891z"/>
			</g>
			<g>
				<path style="fill:#45995B;" d="M275.931,425.697l-2.801-0.075c-0.052-1.535-0.112-3.077-0.164-4.612
					c-0.656-18.149-1.304-36.305-1.959-54.454l2.794-0.03c0.171,4.887,0.35,9.767,0.522,14.655
					C274.858,396.023,275.395,410.856,275.931,425.697z"/>
			</g>
			<g>
				<path style="fill:#45995B;" d="M266.365,425.444l-2.801-0.067c-0.074-1.311-0.156-2.622-0.231-3.934
					c-1.058-18.246-2.123-36.506-3.189-54.759l2.794-0.037c0.276,4.731,0.551,9.454,0.827,14.185
					C264.629,395.702,265.493,410.573,266.365,425.444z"/>
			</g>
			<g>
				<path style="fill:#45995B;" d="M258.483,425.242l-2.801-0.074c-0.194-2.012-0.38-4.031-0.574-6.042
					c-1.646-17.441-3.3-34.882-4.954-52.33l2.794-0.03c0.447,4.731,0.894,9.469,1.341,14.2
					C255.689,395.725,257.09,410.476,258.483,425.242z"/>
			</g>
		</g>
		<path style="fill:#FFFFFF;" d="M299.146,432.141c1.818,3.867,2.317,19.609,0,21.837c-2.317,2.228-27.491,2.079-34.949,1.632
			c-7.45-0.447-48.359,2.973-59.289,1.781c-10.937-1.185-21.203-9.499-21.203-15.146c0-5.632,6.593-9.782,15.176-11.57
			c0.022-0.008,0.037-0.008,0.06-0.015c0.492-0.104,1.036-0.216,1.624-0.343c9.678-2.086,31.246-7.279,31.246-7.279
			s11.131-13.098,17.098-11.309c5.349,1.602,5.58,6.862,5.573,7.919c0,0.119-0.008,0.186-0.008,0.186
			c0.261,0.328,0.656,0.633,1.155,0.909c0.328,0.179,0.708,0.35,1.125,0.514c6.914,2.622,25.249,2.146,30.136,0.343
			c5.632-2.079,8.94-1.93,8.94-1.93s5.133,1.93,5.632,6.087C301.962,429.914,299.146,432.141,299.146,432.141z"/>
		<path style="fill:#1EA0E2;" d="M286.914,435.202l-26.535,16.739c0,0-29.674,3.424-29.674,3.995c0,0.571,34.62-21.685,34.62-21.685
			S284.632,436.723,286.914,435.202z"/>
		<g>
			<path style="fill:#FFFFFF;" d="M390.255,373.553c-3.137,8.367-8.665,23.923-15.765,33.288
				c-7.1,9.357-22.522,19.154-30.606,20.518c-8.083,1.363-16.629-0.455-18.849-7.815c-0.104-0.358-0.171-0.73-0.186-1.11
				c-0.209-3.673,3.569-8.143,7.629-12.114c0.425-0.425,0.857-0.835,1.289-1.237c3.658-3.457,7.242-6.4,8.061-7.875
				c1.93-3.45-1.192-16.577-2.749-17.173c-1.557-0.596-6.422-5.29-5.133-9.901c0.961-3.442,10.088-5.453,14.357-6.184
				c1.296-0.224,2.146-0.328,2.19-0.32c0.007-0.007,0.007-0.007,0.007-0.015c0.015-0.03,0.06-0.097,0.119-0.201
				c0.037-0.067,0.089-0.156,0.149-0.261c1.475-2.697,8.352-16.54,3.74-33.407c0,0,0.775-2.496,8.024-2.995
				c7.249-0.499,7.666,6.653,7.666,6.653s0.022,0,0.06,0.007c0.194,0.037,0.864,0.157,1.863,0.343
				c4.209,0.797,14.26,2.816,19.423,4.858C398.19,341.234,393.392,365.186,390.255,373.553z"/>
			<path style="fill:#D8932E;" d="M404.366,354.517c-0.499,2.086-1.08,4.247-1.699,6.422c-2.935,10.289-6.854,20.734-8.806,23.908
				c-3.993,6.504-5.99,23.476-7.987,28.006c-0.998,2.272-3.8,5.185-7.964,7.875c-1.08,0.7-2.257,1.386-3.517,2.049
				c-3.546,1.848-7.763,3.464-12.487,4.5c-12.837,2.831-36.238,2.265-37.095-6.504c-0.849-8.769,7.137-0.849,11.131-0.849
				c3.993,0,26.538,0,34.524-9.618c7.987-9.618,3.993-26.59,9.417-35.642c5.424-9.052,12.196-26.27,11.66-36.052
				c0,0,8.881-4.686,13.731-1.013C407.264,339.103,406.377,346.203,404.366,354.517z"/>
		</g>
		<g>
			<polygon style="fill:#1369AA;" points="170.041,215.447 164.608,228.579 157.409,225.213 148.689,221.134 126.006,210.521 
				120.612,208.002 117.468,206.529 121.111,198.696 124.319,199.797 130.037,201.753 153.615,209.824 162.795,212.968 			"/>
			<path style="fill:#353433;" d="M105.186,172.351c3.025,22.134-10.853,45.621-32.098,48.525
				c-21.246,2.904-43.21-6.044-46.236-28.178s13.282-48.83,34.528-51.734C82.626,138.06,102.16,150.217,105.186,172.351z"/>
			<path style="fill:#353433;" d="M80.254,219.02c16.486-6.184,40.651-10.908,40.651-10.908l3.029-7.883
				c0,0-7.7-10.126-10.883-15.622c-3.191-5.494-10.704-22.58-10.704-22.58L80.254,219.02z M117.584,200.06l-1.807,4.497
				c0,0-14.428,1.596-15.865,2.69c0,0,4.218-4.806,5.952-9.905c1.337-3.932,2.716-10.348,2.716-10.348
				S116.534,199.212,117.584,200.06z"/>
			<path style="fill:#EFB348;" d="M103.583,178.045c0,0-0.201,9.843-2.453,16.017c-2.468,6.765-9.243,15.1-9.243,15.1
				s-13.914,7.794-21.234,8.794c-19.248,2.631-38.503-6.09-41.244-26.142c-2.741-20.053,13.024-45.215,32.273-47.845
				c14.436-1.973,28.061,4.261,35.156,15.944C101.116,166.956,103.583,178.045,103.583,178.045z"/>
			<path style="fill:#1369AA;" d="M157.586,225.342c0,0,0.979,2.044,3.019,3.019c2.039,0.974,3.592,1.459,3.592,1.459l0.416-1.244
				l5.428-13.131l0.362-0.822c0,0-2.726-1.713-4.343-1.925c-1.617-0.212-2.723,0.329-2.723,0.329L157.586,225.342z"/>
			<path style="fill:#73B7E5;" d="M171.123,215.233c0,0-1.865-2.51-4.939,0.335c-3.074,2.845-3.815,7.566-3.695,9.501
				c0.12,1.935,0.126,2.133,0.82,3.615c0.693,1.481,3.393,2.27,5.167,0.208c1.774-2.061,3.166-4.522,3.708-7.377
				C172.726,218.661,172.12,216.497,171.123,215.233z"/>
			<g>
				<path style="fill:#353433;" d="M96.518,174.193c1.051,0.456,1.553,1.632,1.121,2.627c-0.432,0.995-1.633,1.432-2.684,0.976
					c-1.051-0.456-1.553-1.632-1.121-2.627C94.266,174.174,95.467,173.737,96.518,174.193z"/>
				<path style="fill:#353433;" d="M93.792,180.477c1.051,0.456,1.553,1.632,1.121,2.627c-0.432,0.995-1.633,1.432-2.684,0.976
					c-1.051-0.456-1.553-1.632-1.121-2.627C91.539,180.458,92.741,180.021,93.792,180.477z"/>
				<path style="fill:#353433;" d="M91.066,186.761c1.051,0.456,1.553,1.632,1.121,2.627c-0.432,0.995-1.633,1.432-2.684,0.976
					c-1.051-0.456-1.553-1.632-1.121-2.627C88.813,186.742,90.015,186.305,91.066,186.761z"/>
				<path style="fill:#353433;" d="M88.34,193.045c1.051,0.456,1.553,1.632,1.121,2.627c-0.432,0.995-1.634,1.432-2.684,0.976
					c-1.051-0.456-1.553-1.632-1.121-2.627C86.087,193.026,87.289,192.589,88.34,193.045z"/>
				<path style="fill:#353433;" d="M85.614,199.329c1.051,0.456,1.553,1.632,1.121,2.627c-0.432,0.995-1.633,1.432-2.684,0.976
					c-1.051-0.456-1.553-1.632-1.121-2.627C83.361,199.31,84.563,198.873,85.614,199.329z"/>
				<path style="fill:#353433;" d="M82.888,205.613c1.051,0.456,1.553,1.632,1.121,2.627c-0.432,0.995-1.633,1.432-2.684,0.976
					c-1.051-0.456-1.553-1.632-1.121-2.627C80.635,205.594,81.837,205.157,82.888,205.613z"/>
				<path style="fill:#353433;" d="M50.158,154.082c1.051,0.456,1.553,1.632,1.121,2.627c-0.432,0.995-1.633,1.432-2.684,0.976
					c-1.051-0.456-1.553-1.632-1.121-2.627C47.905,154.063,49.107,153.626,50.158,154.082z"/>
				<path style="fill:#353433;" d="M47.432,160.366c1.051,0.456,1.553,1.632,1.121,2.627c-0.432,0.995-1.633,1.432-2.684,0.976
					c-1.051-0.456-1.553-1.632-1.121-2.627C45.18,160.347,46.381,159.91,47.432,160.366z"/>
				<path style="fill:#353433;" d="M44.706,166.65c1.051,0.456,1.553,1.632,1.121,2.627c-0.432,0.995-1.633,1.432-2.684,0.976
					c-1.051-0.456-1.553-1.632-1.121-2.627C42.453,166.631,43.655,166.194,44.706,166.65z"/>
				<path style="fill:#353433;" d="M41.98,172.934c1.051,0.456,1.553,1.632,1.121,2.627c-0.432,0.995-1.633,1.432-2.684,0.976
					c-1.051-0.456-1.553-1.632-1.121-2.627C39.728,172.915,40.929,172.478,41.98,172.934z"/>
				<path style="fill:#353433;" d="M39.254,179.217c1.051,0.456,1.553,1.632,1.121,2.627c-0.432,0.995-1.634,1.432-2.684,0.976
					c-1.051-0.456-1.553-1.632-1.121-2.627C37.001,179.199,38.203,178.762,39.254,179.217z"/>
				<path style="fill:#353433;" d="M36.528,185.501c1.051,0.456,1.553,1.632,1.121,2.627c-0.432,0.995-1.633,1.432-2.684,0.976
					c-1.051-0.456-1.553-1.632-1.121-2.627C34.275,185.483,35.477,185.046,36.528,185.501z"/>
				<path style="fill:#353433;" d="M90.168,171.438c1.051,0.456,1.553,1.632,1.121,2.627c-0.432,0.995-1.633,1.432-2.684,0.976
					c-1.051-0.456-1.553-1.632-1.121-2.627C87.915,171.419,89.117,170.982,90.168,171.438z"/>
				<path style="fill:#353433;" d="M92.894,165.154c1.051,0.456,1.553,1.632,1.121,2.627c-0.432,0.995-1.633,1.432-2.684,0.976
					c-1.051-0.456-1.553-1.632-1.121-2.627C90.641,165.135,91.843,164.698,92.894,165.154z"/>
				<path style="fill:#353433;" d="M87.441,177.722c1.051,0.456,1.553,1.632,1.121,2.627c-0.432,0.995-1.633,1.432-2.684,0.976
					c-1.051-0.456-1.553-1.632-1.121-2.627C85.189,177.703,86.391,177.266,87.441,177.722z"/>
				<path style="fill:#353433;" d="M84.715,184.006c1.051,0.456,1.553,1.632,1.121,2.627c-0.432,0.995-1.633,1.432-2.684,0.976
					c-1.051-0.456-1.553-1.632-1.121-2.627C82.463,183.987,83.665,183.55,84.715,184.006z"/>
				<path style="fill:#353433;" d="M81.989,190.29c1.051,0.456,1.553,1.632,1.121,2.627c-0.432,0.995-1.634,1.432-2.684,0.976
					c-1.051-0.456-1.553-1.632-1.121-2.627C79.737,190.271,80.939,189.834,81.989,190.29z"/>
				<path style="fill:#353433;" d="M79.263,196.574c1.051,0.456,1.553,1.632,1.121,2.627c-0.432,0.995-1.633,1.432-2.684,0.976
					c-1.051-0.456-1.553-1.632-1.121-2.627C77.011,196.555,78.213,196.118,79.263,196.574z"/>
				<path style="fill:#353433;" d="M76.537,202.858c1.051,0.456,1.553,1.632,1.121,2.627c-0.432,0.995-1.633,1.432-2.684,0.976
					c-1.051-0.456-1.553-1.632-1.121-2.627C74.285,202.839,75.487,202.402,76.537,202.858z"/>
				<path style="fill:#353433;" d="M73.811,209.142c1.051,0.456,1.553,1.632,1.121,2.627c-0.432,0.995-1.633,1.432-2.684,0.976
					c-1.051-0.456-1.553-1.632-1.121-2.627C71.559,209.123,72.76,208.686,73.811,209.142z"/>
				<path style="fill:#353433;" d="M83.817,168.683c1.051,0.456,1.553,1.632,1.121,2.627c-0.432,0.995-1.634,1.432-2.684,0.976
					c-1.051-0.456-1.553-1.632-1.121-2.627C81.564,168.664,82.766,168.227,83.817,168.683z"/>
				<path style="fill:#353433;" d="M86.543,162.399c1.051,0.456,1.553,1.632,1.121,2.627c-0.432,0.995-1.633,1.432-2.684,0.976
					c-1.051-0.456-1.553-1.632-1.121-2.627C84.29,162.38,85.492,161.943,86.543,162.399z"/>
				<path style="fill:#353433;" d="M81.091,174.967c1.051,0.456,1.553,1.632,1.121,2.627c-0.432,0.995-1.633,1.432-2.684,0.976
					c-1.051-0.456-1.553-1.632-1.121-2.627C78.838,174.948,80.04,174.511,81.091,174.967z"/>
				<path style="fill:#353433;" d="M78.365,181.251c1.051,0.456,1.553,1.632,1.121,2.627c-0.432,0.995-1.633,1.432-2.684,0.976
					c-1.051-0.456-1.553-1.632-1.121-2.627C76.112,181.232,77.314,180.795,78.365,181.251z"/>
				<path style="fill:#353433;" d="M75.639,187.535c1.051,0.456,1.553,1.632,1.121,2.627c-0.432,0.995-1.633,1.432-2.684,0.976
					c-1.051-0.456-1.553-1.632-1.121-2.627C73.386,187.516,74.588,187.079,75.639,187.535z"/>
				<path style="fill:#353433;" d="M72.913,193.819c1.051,0.456,1.553,1.632,1.121,2.627c-0.432,0.995-1.633,1.432-2.684,0.976
					c-1.051-0.456-1.553-1.632-1.121-2.627C70.66,193.8,71.862,193.363,72.913,193.819z"/>
				<path style="fill:#353433;" d="M70.187,200.103c1.051,0.456,1.553,1.632,1.121,2.627c-0.432,0.995-1.633,1.432-2.684,0.976
					c-1.051-0.456-1.553-1.632-1.121-2.627C67.934,200.084,69.136,199.647,70.187,200.103z"/>
				<path style="fill:#353433;" d="M67.461,206.387c1.051,0.456,1.553,1.632,1.121,2.627c-0.432,0.995-1.633,1.432-2.684,0.976
					c-1.051-0.456-1.553-1.632-1.121-2.627C65.208,206.368,66.41,205.931,67.461,206.387z"/>
				<path style="fill:#353433;" d="M77.466,165.928c1.051,0.456,1.553,1.632,1.121,2.627c-0.432,0.995-1.634,1.432-2.684,0.976
					c-1.051-0.456-1.553-1.632-1.121-2.627C75.213,165.909,76.415,165.472,77.466,165.928z"/>
				<path style="fill:#353433;" d="M80.192,159.644c1.051,0.456,1.553,1.632,1.121,2.627c-0.432,0.995-1.633,1.432-2.684,0.976
					c-1.051-0.456-1.553-1.632-1.121-2.627C77.939,159.626,79.141,159.188,80.192,159.644z"/>
				<path style="fill:#353433;" d="M74.74,172.212c1.051,0.456,1.553,1.632,1.121,2.627c-0.432,0.995-1.633,1.432-2.684,0.976
					c-1.051-0.456-1.553-1.632-1.121-2.627C72.487,172.193,73.689,171.756,74.74,172.212z"/>
				<path style="fill:#353433;" d="M72.014,178.496c1.051,0.456,1.553,1.632,1.121,2.627c-0.432,0.995-1.633,1.432-2.684,0.976
					c-1.051-0.456-1.553-1.632-1.121-2.627C69.761,178.477,70.963,178.04,72.014,178.496z"/>
				<path style="fill:#353433;" d="M69.288,184.78c1.051,0.456,1.553,1.632,1.121,2.627c-0.432,0.995-1.633,1.432-2.684,0.976
					c-1.051-0.456-1.553-1.632-1.121-2.627C67.035,184.761,68.237,184.324,69.288,184.78z"/>
				<path style="fill:#353433;" d="M66.562,191.064c1.051,0.456,1.553,1.632,1.121,2.627c-0.432,0.995-1.633,1.432-2.684,0.976
					c-1.051-0.456-1.553-1.632-1.121-2.627C64.309,191.045,65.511,190.608,66.562,191.064z"/>
				<path style="fill:#353433;" d="M63.836,197.348c1.051,0.456,1.553,1.632,1.121,2.627c-0.432,0.995-1.633,1.432-2.684,0.976
					c-1.051-0.456-1.553-1.632-1.121-2.627C61.583,197.329,62.785,196.892,63.836,197.348z"/>
				<path style="fill:#353433;" d="M61.11,203.632c1.051,0.456,1.553,1.632,1.121,2.627c-0.432,0.995-1.634,1.432-2.684,0.976
					c-1.051-0.456-1.553-1.632-1.121-2.627C58.857,203.613,60.059,203.176,61.11,203.632z"/>
				<path style="fill:#353433;" d="M71.116,163.173c1.051,0.456,1.553,1.632,1.121,2.627c-0.432,0.995-1.633,1.432-2.684,0.976
					c-1.051-0.456-1.553-1.632-1.121-2.627C68.863,163.154,70.065,162.717,71.116,163.173z"/>
				<path style="fill:#353433;" d="M73.841,156.889c1.051,0.456,1.553,1.632,1.121,2.627c-0.432,0.995-1.633,1.432-2.684,0.976
					c-1.051-0.456-1.553-1.632-1.121-2.627C71.589,156.87,72.791,156.433,73.841,156.889z"/>
				<path style="fill:#353433;" d="M68.389,169.457c1.051,0.456,1.553,1.632,1.121,2.627c-0.432,0.995-1.633,1.432-2.684,0.976
					c-1.051-0.456-1.553-1.632-1.121-2.627C66.137,169.438,67.339,169.001,68.389,169.457z"/>
				<path style="fill:#353433;" d="M65.663,175.741c1.051,0.456,1.553,1.632,1.121,2.627c-0.432,0.995-1.633,1.432-2.684,0.976
					c-1.051-0.456-1.553-1.632-1.121-2.627C63.411,175.722,64.613,175.285,65.663,175.741z"/>
				<path style="fill:#353433;" d="M62.937,182.025c1.051,0.456,1.553,1.632,1.121,2.627c-0.432,0.995-1.634,1.432-2.684,0.976
					s-1.553-1.632-1.121-2.627C60.685,182.006,61.887,181.569,62.937,182.025z"/>
				<path style="fill:#353433;" d="M60.211,188.309c1.051,0.456,1.553,1.632,1.121,2.627c-0.432,0.995-1.633,1.432-2.684,0.976
					c-1.051-0.456-1.553-1.632-1.121-2.627C57.959,188.29,59.16,187.853,60.211,188.309z"/>
				<path style="fill:#353433;" d="M57.485,194.593c1.051,0.456,1.553,1.632,1.121,2.627c-0.432,0.995-1.633,1.432-2.684,0.976
					c-1.051-0.456-1.553-1.632-1.121-2.627C55.233,194.574,56.435,194.137,57.485,194.593z"/>
				<path style="fill:#353433;" d="M54.759,200.877c1.051,0.456,1.553,1.632,1.121,2.627c-0.432,0.995-1.633,1.432-2.684,0.976
					c-1.051-0.456-1.553-1.632-1.121-2.627C52.507,200.858,53.708,200.421,54.759,200.877z"/>
				<path style="fill:#353433;" d="M64.13,160.143c1.051,0.456,1.553,1.632,1.121,2.627c-0.432,0.995-1.633,1.432-2.684,0.976
					c-1.051-0.456-1.553-1.632-1.121-2.627C61.877,160.124,63.079,159.687,64.13,160.143z"/>
				<path style="fill:#353433;" d="M66.856,153.859c1.051,0.456,1.553,1.632,1.121,2.627c-0.432,0.995-1.633,1.432-2.684,0.976
					c-1.051-0.456-1.553-1.632-1.121-2.627C64.603,153.84,65.805,153.403,66.856,153.859z"/>
				<path style="fill:#353433;" d="M61.404,166.427c1.051,0.456,1.553,1.632,1.121,2.627c-0.432,0.995-1.633,1.432-2.684,0.976
					c-1.051-0.456-1.553-1.632-1.121-2.627C59.151,166.408,60.353,165.971,61.404,166.427z"/>
				<path style="fill:#353433;" d="M58.678,172.711c1.051,0.456,1.553,1.632,1.121,2.627c-0.432,0.995-1.633,1.432-2.684,0.976
					c-1.051-0.456-1.553-1.632-1.121-2.627C56.425,172.692,57.627,172.255,58.678,172.711z"/>
				<path style="fill:#353433;" d="M55.952,178.995c1.051,0.456,1.553,1.632,1.121,2.627c-0.432,0.995-1.633,1.432-2.684,0.976
					c-1.051-0.456-1.553-1.632-1.121-2.627C53.699,178.976,54.901,178.539,55.952,178.995z"/>
				<path style="fill:#353433;" d="M53.226,185.278c1.051,0.456,1.553,1.632,1.121,2.627c-0.432,0.995-1.634,1.432-2.684,0.976
					c-1.051-0.456-1.553-1.632-1.121-2.627C50.973,185.26,52.175,184.823,53.226,185.278z"/>
				<path style="fill:#353433;" d="M50.5,191.562c1.051,0.456,1.553,1.632,1.121,2.627c-0.432,0.995-1.633,1.432-2.684,0.976
					c-1.051-0.456-1.553-1.632-1.121-2.627C48.247,191.544,49.449,191.107,50.5,191.562z"/>
				<path style="fill:#353433;" d="M47.774,197.846c1.051,0.456,1.553,1.632,1.121,2.627c-0.432,0.995-1.633,1.432-2.684,0.976
					c-1.051-0.456-1.553-1.632-1.121-2.627C45.521,197.827,46.723,197.39,47.774,197.846z"/>
				<path style="fill:#353433;" d="M57.144,157.112c1.051,0.456,1.553,1.632,1.121,2.627c-0.432,0.995-1.634,1.432-2.684,0.976
					c-1.051-0.456-1.553-1.632-1.121-2.627C54.891,157.094,56.093,156.656,57.144,157.112z"/>
				<path style="fill:#353433;" d="M59.87,150.828c1.051,0.456,1.553,1.632,1.121,2.627c-0.432,0.995-1.633,1.432-2.684,0.976
					c-1.051-0.456-1.553-1.632-1.121-2.627C57.617,150.81,58.819,150.372,59.87,150.828z"/>
				<path style="fill:#353433;" d="M89.517,155.544c1.051,0.456,1.553,1.632,1.121,2.627c-0.432,0.995-1.633,1.432-2.684,0.976
					c-1.051-0.456-1.553-1.632-1.121-2.627C87.264,155.525,88.466,155.088,89.517,155.544z"/>
				<path style="fill:#353433;" d="M83.166,152.789c1.051,0.456,1.553,1.632,1.121,2.627c-0.432,0.995-1.633,1.432-2.684,0.976
					c-1.051-0.456-1.553-1.632-1.121-2.627C80.913,152.77,82.115,152.333,83.166,152.789z"/>
				<path style="fill:#353433;" d="M76.815,150.034c1.051,0.456,1.553,1.632,1.121,2.627c-0.432,0.995-1.633,1.432-2.684,0.976
					c-1.051-0.456-1.553-1.632-1.121-2.627C74.563,150.015,75.764,149.578,76.815,150.034z"/>
				<path style="fill:#353433;" d="M69.83,147.004c1.051,0.456,1.553,1.632,1.121,2.627c-0.432,0.995-1.633,1.432-2.684,0.976
					c-1.051-0.456-1.553-1.632-1.121-2.627C67.577,146.985,68.779,146.548,69.83,147.004z"/>
				<path style="fill:#353433;" d="M54.418,163.396c1.051,0.456,1.553,1.632,1.121,2.627c-0.432,0.995-1.633,1.432-2.684,0.976
					c-1.051-0.456-1.553-1.632-1.121-2.627C52.165,163.377,53.367,162.94,54.418,163.396z"/>
				<path style="fill:#353433;" d="M51.692,169.68c1.051,0.456,1.553,1.632,1.121,2.627c-0.432,0.995-1.633,1.432-2.684,0.976
					c-1.051-0.456-1.553-1.632-1.121-2.627C49.439,169.661,50.641,169.224,51.692,169.68z"/>
				<path style="fill:#353433;" d="M48.966,175.964c1.051,0.456,1.553,1.632,1.121,2.627c-0.432,0.995-1.633,1.432-2.684,0.976
					c-1.051-0.456-1.553-1.632-1.121-2.627C46.713,175.945,47.915,175.508,48.966,175.964z"/>
				<path style="fill:#353433;" d="M46.24,182.248c1.051,0.456,1.553,1.632,1.121,2.627c-0.432,0.995-1.633,1.432-2.684,0.976
					c-1.051-0.456-1.553-1.632-1.121-2.627C43.987,182.229,45.189,181.792,46.24,182.248z"/>
				<path style="fill:#353433;" d="M43.514,188.532c1.051,0.456,1.553,1.632,1.121,2.627c-0.432,0.995-1.634,1.432-2.684,0.976
					c-1.051-0.456-1.553-1.632-1.121-2.627C41.261,188.513,42.463,188.076,43.514,188.532z"/>
				<path style="fill:#353433;" d="M40.788,194.816c1.051,0.456,1.553,1.632,1.121,2.627c-0.432,0.995-1.633,1.432-2.684,0.976
					c-1.051-0.456-1.553-1.632-1.121-2.627C38.535,194.797,39.737,194.36,40.788,194.816z"/>
				<path style="fill:#353433;" d="M64.735,212.671c1.051,0.456,1.553,1.632,1.121,2.627c-0.432,0.995-1.634,1.432-2.684,0.976
					c-1.051-0.456-1.553-1.632-1.121-2.627C62.482,212.652,63.684,212.215,64.735,212.671z"/>
				<path style="fill:#353433;" d="M58.384,209.916c1.051,0.456,1.553,1.632,1.121,2.627c-0.432,0.995-1.633,1.432-2.684,0.976
					c-1.051-0.456-1.553-1.632-1.121-2.627C56.131,209.897,57.333,209.46,58.384,209.916z"/>
				<path style="fill:#353433;" d="M52.033,207.161c1.051,0.456,1.553,1.632,1.121,2.627c-0.432,0.995-1.633,1.432-2.684,0.976
					c-1.051-0.456-1.553-1.632-1.121-2.627C49.781,207.142,50.982,206.705,52.033,207.161z"/>
				<path style="fill:#353433;" d="M45.048,204.13c1.051,0.456,1.553,1.632,1.121,2.627c-0.432,0.995-1.633,1.432-2.684,0.976
					c-1.051-0.456-1.553-1.632-1.121-2.627C42.795,204.111,43.997,203.674,45.048,204.13z"/>
			</g>
		</g>
		<path style="fill:#EFB348;" d="M165.745,196.287c0,0-10.842-3.709-17.12-5.136c-6.277-1.427-14.837,2.283-18.546,3.424
			c-3.709,1.141-7.704,3.995-6.277,8.275c1.427,4.28,6.563,2.283,11.413,0.856c4.851-1.427,26.25,5.992,26.25,5.992L165.745,196.287
			z"/>
		<path style="fill:#EFB348;" d="M406.742,224.831c-2.049,3.762-4.463,8.27-6.541,12.174c-0.805,1.52-1.565,2.943-2.228,4.194
			c-1.579,2.98-2.645,5.007-2.645,5.007l-26.456-10.408c0,0,17.791-43.718,17.963-47.302c0.007-0.074,0-0.134-0.007-0.171
			c-0.104-0.365-1.483-1.743-3.658-3.74c-9.499-8.709-34.211-29.272-34.211-29.272l22.574-29.399c0,0,42.734,37.735,49.455,50.289
			C427.715,188.765,411.473,216.144,406.742,224.831z"/>
		<path style="fill:#1983B2;" d="M280.913,194.731c0,0-9.645,13.468-18.062,21.243c-8.417,7.775-22.256,18.546-31.671,32.527
			l38.519,15.693l22.826-57.066L280.913,194.731z"/>
		<path style="fill:#1EA0E2;" d="M359.575,225.673c-5.99,19.117-27.678,66.769-27.678,66.769l-30.941-11.481l-14.96-5.55
			l-37.125-13.783c0,0,28.818-47.652,30.531-50.222c1.706-2.563,1.512-16.674,1.512-16.674l45.253-0.358l15.124,0.209l20.279,0.276
			C361.572,194.859,365.572,206.556,359.575,225.673z"/>
		<path style="fill:#FFFFFF;" d="M328.284,238.897c-7.778,12.203-20.086,31.105-27.327,42.064l-14.96-5.55
			c10.862-15.839,33.34-49.134,36.201-56.681c2.63-6.929,3.613-17.478,3.971-24.355l15.124,0.209
			C341.396,203.68,339.742,220.935,328.284,238.897z"/>
		<path style="fill:#EFB348;" d="M407.202,268.099c-2.684-5.444-8.626-28.248-8.626-28.248l-26.829-11.403
			c-1.332,1.773-7.3,7.654-10.225,10.027c-2.925,2.373-15.83,10.59-16.165,13.806c-0.335,3.216,3.271,5.313,6.795,4.533
			c3.524-0.78,9.831-6.243,11.285-5.517c1.454,0.725-0.256,2.46-1.956,5.916c-1.699,3.457-10.037,19.226-8.023,21.922
			c2.014,2.696,6.314,1.806,7.647,0.032c1.332-1.774,8.815-16.676,10.277-17.862c1.462-1.186,1.742-0.201,1.884,2.109
			c0.142,2.31-0.467,20.989,1.587,23.306c2.053,2.318,5.179,1.687,6.87,0.143c1.691-1.545,1.853-8.604,1.491-12.467
			c-0.362-3.863-0.121-11.679,0.486-11.998c0.607-0.319,1.466,2.448,2.006,4.608c0.54,2.16,4.666,15.786,6.837,16.969
			c2.172,1.183,4.332,0.643,5.018-0.433c0.686-1.076,1.451-2.909,0.99-5.826c-0.461-2.917-4.094-12.093-4.993-14.482
			c-0.899-2.389-0.552-3.883,1.313-1.584c1.864,2.298,3.614,9.365,4.871,11.983c1.257,2.617,3.09,3.382,5.191,3.41
			C407.031,277.07,409.885,273.543,407.202,268.099z"/>
		<path style="fill:#CE2830;" d="M392.185,138.811l-25.45,36.141l-5.178-4.008l-1.207-0.939l-3.427-2.652
			c0.127,0.395,4.269,12.971,4.537,27.856l-80.545-0.477l-5.893-17.471l-4.113,5.163l-3.442,4.321l-33.146-28.885
			c0,0,1.326-1.542,3.516-4.016c7.391-8.344,24.638-27.268,33.995-32.915c18.909-11.406,21.919-7.8,31.276-9.894
			c10.311-2.302,28.669-4.53,46.482-0.73c12.963,2.771,27.596,17.135,36.946,24.139c0.402,0.306,0.79,0.596,1.155,0.872
			C390.501,137.447,392.185,138.811,392.185,138.811z"/>
		<path style="fill:#D8932E;" d="M310.216,98.704c0.571,0.381,2.283,11.984,2.283,11.984s-12.031,25.775-16.406,28.818
			c0,0-10.414-17.215-10.795-18.546c-0.38-1.331-6.182-15.122-6.182-15.122L310.216,98.704z"/>
		<path style="fill:#EFB348;" d="M277.244,94.91c0,0-2.7-3.712-4.556-2.362c-1.856,1.35-2.194,3.374-0.844,5.736
			c1.35,2.362,3.882,6.074,5.063,6.749c1.181,0.675,2.7-0.337,2.869-1.181C279.945,103.008,277.244,94.91,277.244,94.91z"/>
		<path style="fill:#EFB348;" d="M307.284,89.679c0,0,1.519-4.218,3.544-4.387c2.025-0.169,3.544,2.025,3.375,3.543
			c-0.169,1.519-1.013,7.761-1.856,9.448c-0.844,1.687-3.882,2.7-4.725,1.181C306.777,97.947,307.284,89.679,307.284,89.679z"/>
		<g>
			<path style="fill:#353433;" d="M353.376,392.044c-0.417,3.919-1.371,8.009-3.494,11.376c-0.954,1.52-2.19,2.973-3.71,3.949
				c-1.267,0.812-2.786,1.185-4.262,1.364c-2.95,0.35-7.055-0.469-9.432-2.414c0.425-0.425,0.857-0.835,1.289-1.237
				c0.037,0.015,0.067,0.037,0.097,0.067c2.362,1.997,7.055,2.205,9.857,1.304c3.293-1.058,5.253-4.626,6.31-7.689
				c1.349-3.882,1.848-8.069,1.632-12.159c-0.112-2.183-0.447-4.351-0.991-6.467c-0.529-2.049-1.326-3.993-1.959-5.997
				c-1.021-3.189-2.131-7.234-0.41-10.192c1.296-0.224,2.146-0.328,2.19-0.32c-3.308,3.934,0.521,10.93,1.706,15.027
				C353.451,382.977,353.853,387.567,353.376,392.044z"/>
		</g>
		<path style="fill:#45995B;" d="M294.87,373.314l-50.453,1.267c-0.305-2.54-0.589-5.111-0.872-7.711l51.205-0.581
			C294.795,368.665,294.832,371.005,294.87,373.314z"/>
		<g>
			<path style="fill:#1EA0E2;" d="M356.03,377.401c-5.378-1.099-10.762-0.476-15.737,1.848c-1.77,0.826-2.428,3.454-1.421,5.074
				c1.131,1.819,3.18,2.305,5.074,1.421c0.248-0.116,0.598-0.204,0.816-0.364c-0.552,0.218-0.643,0.256-0.274,0.112
				c0.07-0.026,0.139-0.052,0.209-0.078c0.524-0.193,1.056-0.363,1.594-0.512c1.042-0.288,2.103-0.487,3.177-0.614
				c-0.331,0.039-0.662,0.078-0.992,0.117c1.783-0.191,3.57-0.161,5.344,0.099c-0.329-0.05-0.659-0.1-0.988-0.15
				c0.368,0.058,0.734,0.124,1.099,0.199c0.997,0.204,1.964,0.186,2.876-0.328c0.78-0.439,1.532-1.313,1.749-2.197
				C359.003,380.202,358.072,377.818,356.03,377.401L356.03,377.401z"/>
		</g>
		<g>
			<path style="fill:#1EA0E2;" d="M357.513,390.332c-5.096-1.155-10.241-1.269-15.387-0.376c-1.924,0.334-3.233,2.721-2.678,4.538
				c0.628,2.058,2.477,3.035,4.538,2.678c0.67-0.116,1.341-0.214,2.016-0.294c-0.331,0.039-0.662,0.078-0.992,0.117
				c2.961-0.329,5.941-0.275,8.888,0.16c-0.329-0.05-0.659-0.1-0.988-0.15c0.84,0.13,1.673,0.289,2.502,0.477
				c1.895,0.43,4.125-0.487,4.625-2.525C360.494,393.099,359.545,390.793,357.513,390.332L357.513,390.332z"/>
		</g>
		<path style="fill:#353433;" d="M256.754,421.257c-0.984,0.216-1.974,0.35-2.272,0.283c-4.031-0.909-8.344,0.596-11.041,3.695
			c-0.074,0.156-0.201,0.291-0.395,0.387c-0.022,0.007-0.037,0.015-0.052,0.022c-0.03,0.015-0.06,0.037-0.097,0.052
			c-3.479,1.714-7.018,3.3-10.632,4.723c-6.482,2.563-13.194,4.634-20.056,5.908c-2.913,0.544-6.586,1.505-9.372,0.03
			c-1.907-1.021-3.919-3.271-3.971-5.536c0-0.052,0-0.104,0.015-0.149c0.022-0.008,0.037-0.008,0.06-0.015
			c0.492-0.104,1.036-0.216,1.624-0.343c0.097,0.134,0.157,0.306,0.164,0.507c0.03,1.185,1.021,2.287,1.833,3.04
			c1.073,0.991,2.25,1.363,3.703,1.371c3.069,0.022,6.281-0.805,9.261-1.49c3.07-0.708,6.102-1.565,9.097-2.541
			c5.96-1.937,11.757-4.358,17.374-7.137c3.002-3.576,7.92-5.267,12.487-4.418c0,0.119-0.008,0.186-0.008,0.186
			c0.261,0.328,0.656,0.633,1.155,0.909C255.957,420.921,256.337,421.093,256.754,421.257z"/>
		<g>
			<path style="fill:#1EA0E2;" d="M351.78,403.171c-1.961-1.692-4.027-2.953-6.417-3.941c-2.1-0.867-4.382-1.308-6.644-1.448
				c-1.948-0.121-3.841,1.713-3.787,3.663c0.059,2.095,1.576,3.657,3.662,3.787c0.53,0.033,1.056,0.088,1.581,0.164
				c-0.329-0.05-0.659-0.1-0.988-0.15c1.518,0.237,2.989,0.665,4.4,1.273c-0.294-0.13-0.589-0.26-0.884-0.39
				c1.405,0.622,2.718,1.411,3.922,2.365c-0.248-0.198-0.496-0.397-0.744-0.595c0.183,0.148,0.364,0.299,0.542,0.453
				c0.766,0.661,1.57,1.117,2.616,1.135c0.914,0.015,2.012-0.372,2.652-1.047c0.663-0.699,1.163-1.623,1.135-2.615
				C352.801,404.887,352.518,403.808,351.78,403.171L351.78,403.171z"/>
		</g>
		<g>
			<path style="fill:#1EA0E2;" d="M230.655,424.621c1.311,1.099,2.493,2.331,3.541,3.682c-0.194-0.251-0.388-0.503-0.582-0.754
				c1.23,1.612,2.25,3.364,3.042,5.231c-0.125-0.297-0.25-0.593-0.376-0.89c0.388,0.935,0.717,1.89,0.986,2.867
				c0.518,1.878,2.668,3.221,4.582,2.602c1.921-0.621,3.156-2.57,2.602-4.582c-1.423-5.163-4.414-9.977-8.528-13.424
				c-0.774-0.649-1.591-1.091-2.634-1.091c-0.914,0-2.005,0.406-2.634,1.091C229.389,420.732,229.06,423.284,230.655,424.621
				L230.655,424.621z"/>
		</g>
		<g>
			<path style="fill:#1EA0E2;" d="M218.432,427.728c0.4,0.423,0.786,0.858,1.154,1.309c0.092,0.113,0.183,0.227,0.272,0.341
				c-0.359-0.467-0.421-0.545-0.187-0.233c0.168,0.238,0.34,0.471,0.504,0.712c0.633,0.933,1.197,1.912,1.686,2.928
				c0.111,0.229,0.214,0.462,0.321,0.693c0.157,0.362,0.117,0.266-0.119-0.288c0.055,0.135,0.109,0.27,0.161,0.406
				c0.21,0.543,0.399,1.093,0.567,1.65c0.336,1.115,0.581,2.253,0.747,3.406c-0.044-0.33-0.089-0.66-0.133-0.99
				c0.029,0.216,0.056,0.433,0.08,0.65c0.116,1.019,0.339,1.882,1.091,2.634c0.646,0.646,1.706,1.133,2.634,1.091
				c0.963-0.043,1.963-0.36,2.634-1.091c0.624-0.68,1.2-1.673,1.091-2.634c-0.357-3.139-1.135-6.018-2.455-8.893
				c-1.176-2.563-2.847-4.914-4.78-6.96c-1.341-1.42-3.934-1.454-5.268,0C217.035,423.981,217.001,426.213,218.432,427.728
				L218.432,427.728z"/>
		</g>
		<g>
			<path style="fill:#1EA0E2;" d="M205.868,432.312c0.181,0.22,0.347,0.48,0.548,0.68c-0.358-0.467-0.419-0.546-0.182-0.235
				c0.088,0.116,0.175,0.233,0.261,0.35c0.346,0.469,0.68,0.946,1.002,1.431c0.645,0.97,1.242,1.971,1.79,2.999
				c0.274,0.514,0.535,1.034,0.784,1.561c0.124,0.263,0.245,0.528,0.363,0.794c0.059,0.133,0.117,0.267,0.174,0.4
				c-0.233-0.555-0.274-0.65-0.123-0.285c0.427,1.086,0.821,2.178,1.156,3.296c0.559,1.865,2.638,3.231,4.582,2.602
				c1.885-0.61,3.201-2.583,2.602-4.582c-1.579-5.265-4.208-10.04-7.69-14.277c-0.571-0.695-1.772-1.091-2.634-1.091
				c-0.914,0-2.005,0.406-2.634,1.091c-0.652,0.71-1.135,1.642-1.091,2.634C204.824,430.719,205.209,431.51,205.868,432.312
				L205.868,432.312z"/>
		</g>
		<polygon style="fill:#CE2830;" points="297.091,122.387 295.807,141.076 305.365,128.378 		"/>
		<polygon style="fill:#1EA0E2;" points="319.346,108.406 311.643,101.558 297.091,122.387 307.363,133.8 		"/>
		<polygon style="fill:#1EA0E2;" points="280.256,107.264 286.248,122.101 280.542,134.085 276.262,115.253 		"/>
		<path style="fill:#EFB348;" d="M274.736,84.43c0,0,1.727,20.653,7.148,28.049c5.421,7.397,20.207,5.812,24.643-1.057
			c4.436-6.868,1.479-32.229,1.479-32.229L274.736,84.43z"/>
		<path style="fill:#353433;" d="M308.076,66.89c-1.838-0.948-4.842-1.043-6.135,0.571c0.376-2.787-1.619-4.739-4.137-5.992
			c-2.518-1.253-5.744-0.42-8.255,0.847c-2.511,1.268-3.503,2.138-4.823,4.621c-3.922-2.125-11.045-3.083-14.314-0.048
			c-3.995,3.709-3.617,7.414-2.425,9.987c0.69,1.49,2.591,2.157,3.77,3.206c0.216,0.192,0.43,0.422,0.647,0.667
			c0.839,3.663,2.28,10.141,2.149,10.866c-0.184,1.018,2.819,4.091,2.819,4.091l-0.182-2.182c-0.296-1.626,0.077-6.403,0.479-10.438
			c2.053-0.272,4.355-1.082,5.867-1.325c1.641-0.263,17.423-1.733,21.358-2.036c2.081,5.036,2.941,11.617,2.941,11.617
			s0.806-1.525,0.988-4.98c0.12-2.28-0.325-7.718-0.527-11.079c0.77-0.987,1.49-1.972,1.775-2.974
			C310.639,70.323,309.913,67.839,308.076,66.89z"/>
		<path style="fill:#FFFFFF;" d="M309.241,86.026c0,0-22.008,0.238-34.666,6.325l-0.946-4.172l-0.596-2.63l-0.887-3.934
			c0,0,14.178-7.093,36.216-5.975l0.343,4.023l0.216,2.563L309.241,86.026z"/>
		<path style="fill:#1EA0E2;" d="M308.921,82.226c-3.047,0.06-6.921,0.268-11.824,0.753c-10.482,1.021-18.573,3.405-23.468,5.2
			l-0.596-2.63c14.498-4.746,27.059-5.871,35.672-5.886L308.921,82.226z"/>
		<g>
			<path style="fill:#353433;" d="M300.134,134.806c2.397,0,2.401-3.725,0-3.725C297.737,131.081,297.733,134.806,300.134,134.806
				L300.134,134.806z"/>
		</g>
		<g>
			<path style="fill:#353433;" d="M302.227,144.127c2.397,0,2.401-3.725,0-3.725C299.83,140.402,299.826,144.127,302.227,144.127
				L302.227,144.127z"/>
		</g>
		<g>
			<path style="fill:#353433;" d="M303.939,153.828c2.397,0,2.401-3.725,0-3.725C301.542,150.103,301.538,153.828,303.939,153.828
				L303.939,153.828z"/>
		</g>
		<path style="fill:#353433;" d="M307.753,155.78c-0.14-0.511-0.651-0.753-1.146-0.65c-2.205,0.459-4.409,0.918-6.614,1.377
			c-1.351-5.682-2.033-11.505-3.432-17.177c-0.287-1.163-2.083-0.671-1.796,0.495c1.447,5.867,2.12,11.895,3.567,17.762
			c0.118,0.477,0.489,0.672,0.867,0.66c0.221,0.154,0.502,0.22,0.786,0.161c2.372-0.494,4.745-0.988,7.118-1.482
			C307.596,156.823,307.881,156.243,307.753,155.78z"/>
		<path style="fill:#1EA0E2;" d="M270.91,182.424l-3.442,4.321l-33.146-28.885c0,0,1.326-1.542,3.516-4.016L270.91,182.424z"/>
		<path style="fill:#1EA0E2;" d="M392.185,138.811l-25.45,36.141l-5.178-4.008l26.135-35.627
			C390.501,137.447,392.185,138.811,392.185,138.811z"/>
		<g>
			<path style="fill:#353433;" d="M267.086,154.782c1.914,8.56,4.834,16.866,8.671,24.753c0.524,1.078,2.131,0.134,1.608-0.94
				c-3.767-7.743-6.604-15.905-8.483-24.308C268.621,153.117,266.825,153.612,267.086,154.782L267.086,154.782z"/>
		</g>
		<g>
			<path style="fill:#353433;" d="M357.608,166.66c-2.689-2.54-5.378-5.081-8.068-7.621c-0.871-0.823-2.191,0.492-1.317,1.317
				c2.689,2.54,5.378,5.081,8.068,7.621C357.162,168.8,358.481,167.485,357.608,166.66L357.608,166.66z"/>
		</g>
		<g>
			<path style="fill:#EFB348;" d="M150.382,227.679c0,0,8.141-10.862,5.323-17.017c-2.818-6.155-8.454-0.362-8.454-0.362
				s-0.293-5.854-4.677-5.854c-4.384,0-6.282,3.319-6.282,3.319s-1.253-2.897-5.01-2.897c-3.757,0-6.889,5.069-6.889,5.069
				s-2.818-3.983-6.262-2.172c-3.444,1.81-5.323,5.431-3.757,9.052c1.566,3.621,7.828,2.896,7.828,2.896s3.757,5.431,8.454,2.897
				c0,0,2.818,5.069,8.768,2.172C139.423,224.782,145.059,233.472,150.382,227.679z"/>
			<g>
				<path style="fill:#1C1B1A;" d="M122.694,219.112c-0.267-3.064,0.621-6.193,2.577-8.587c0.318-0.389,0.381-0.936,0-1.317
					c-0.328-0.328-0.997-0.392-1.317,0c-2.26,2.768-3.434,6.328-3.122,9.904c0.044,0.501,0.397,0.931,0.931,0.931
					C122.233,220.044,122.738,219.616,122.694,219.112L122.694,219.112z"/>
			</g>
			<g>
				<path style="fill:#1C1B1A;" d="M139.651,224.199c1.562-4.28,3.804-8.335,6.649-11.898c1.225-1.534,2.753-3.463,4.841-3.731
					c1.852-0.238,3.744,1.292,3.946,3.137c0.129,1.179,1.993,1.192,1.863,0c-0.251-2.288-1.863-4.261-4.123-4.851
					c-2.55-0.666-4.88,0.825-6.558,2.618c-3.761,4.016-6.537,9.089-8.414,14.23C137.443,224.832,139.242,225.318,139.651,224.199
					L139.651,224.199z"/>
			</g>
			<g>
				<path style="fill:#1C1B1A;" d="M131.071,221.529c0.121-2.379,0.593-4.619,1.662-6.758c0.986-1.974,2.168-3.952,3.554-5.674
					c1.271-1.579,2.793-3.065,4.941-3.064c1.983,0.001,4.227,0.92,5.404,2.565c0.691,0.966,2.308,0.037,1.608-0.94
					c-1.457-2.036-3.857-3.221-6.324-3.453c-2.54-0.239-4.601,0.956-6.273,2.788c-1.768,1.936-3.202,4.272-4.397,6.598
					c-1.293,2.516-1.895,5.122-2.038,7.939C129.147,222.727,131.01,222.724,131.071,221.529L131.071,221.529z"/>
			</g>
		</g>
		<g>
			<path style="fill:#353433;" d="M388.716,189.639c4.053-2.598,8.547-4.295,13.301-5.058c0.994-0.159,1.546-1.398,1.301-2.291
				c-0.291-1.058-1.294-1.461-2.291-1.301c-5.035,0.808-9.898,2.681-14.191,5.433c-0.846,0.542-1.191,1.655-0.668,2.548
				C386.66,189.813,387.865,190.184,388.716,189.639L388.716,189.639z"/>
		</g>
		<g>
			<path style="fill:#353433;" d="M398.697,237.713c-1.394-1.079-2.788-2.158-4.183-3.237c-0.169-0.182-0.369-0.31-0.599-0.385
				c-0.222-0.117-0.461-0.17-0.718-0.16c-0.457,0-1.003,0.203-1.317,0.546c-0.326,0.355-0.568,0.821-0.546,1.317
				c0.021,0.457,0.166,1.023,0.546,1.317c1.394,1.079,2.788,2.158,4.183,3.237c0.169,0.182,0.369,0.31,0.599,0.385
				c0.222,0.117,0.461,0.17,0.718,0.16c0.457,0,1.003-0.203,1.317-0.546c0.326-0.355,0.568-0.821,0.546-1.317
				C399.222,238.573,399.076,238.007,398.697,237.713L398.697,237.713z"/>
		</g>
		<g>
			<path style="fill:#353433;" d="M291.487,310.432c-3.852,1.07-7.704,2.141-11.557,3.211c-0.938,0.261-1.611,1.332-1.301,2.291
				c0.31,0.958,1.285,1.58,2.291,1.301c3.852-1.07,7.704-2.141,11.557-3.211c0.938-0.261,1.611-1.332,1.301-2.291
				C293.468,310.775,292.493,310.153,291.487,310.432L291.487,310.432z"/>
		</g>
		<g>
			<path style="fill:#353433;" d="M372.121,333.754c-0.015,11.086-2.682,22.068-7.718,31.924c-0.551,1.073-2.161,0.127-1.609-0.946
				c4.947-9.67,7.502-20.458,7.465-31.321C370.452,333.448,371.123,333.567,372.121,333.754z"/>
		</g>
		<g>
			<path style="fill:#353433;" d="M299.183,432.112c-10.363,3.405-23.468,3.457-33.951,0.998c-3.129-0.737-6.191-1.736-9.149-2.973
				c-1.11-0.462-1.587,1.341-0.499,1.796c10.624,4.448,23.587,5.841,34.904,3.815c3.002-0.536,6.415-1.103,9.231-1.825
				L299.183,432.112z"/>
		</g>
		<path style="fill:#EFB348;" d="M305.442,462.442c-1.885,3.382-13.41,5.029-23.863,5.662c-3.166,0.186-6.236,0.29-8.91,0.313
			c-1.676,0.022-3.204,0.008-4.492-0.03c-10.103-0.298-19.378-4.314-29.481-4.165c-4.91,0.067-12.271,1.125-19.736,1.557
			c-2.563,0.149-5.133,0.231-7.622,0.164c-5.223-0.119-10.088-0.842-13.716-2.757c-10.438-5.498-17.396-15.295-13.917-22.276
			c0,0,2.488,1.781,3.643,4.157c1.162,2.377,12.039,8.516,26.337,9.059c23.52,0.887,38.92-4.008,46.706-3.718
			c7.785,0.298,15.899,3.271,25.174,1.937c9.276-1.341,15.072-2.973,15.072-2.973S308.25,457.39,305.442,462.442z"/>
		<g>
			<path style="fill:#21201D;" d="M281.578,468.104c-3.166,0.186-6.236,0.29-8.91,0.313c-4.18-0.946-8.322-2.19-12.203-4.031
				c-5.603-2.645-11.391-5.655-17.702-6.012c-6.214-0.343-11.906,3.114-17.56,5.185c-2.064,0.76-4.142,1.527-6.243,2.22
				c-2.563,0.149-5.133,0.231-7.622,0.164c2.198-0.44,4.373-1.065,6.504-1.751c3.166-1.028,6.325-2.153,9.41-3.397
				c2.846-1.147,5.632-2.473,8.583-3.353c2.928-0.879,5.871-1.14,8.903-0.73c6.161,0.82,11.704,3.77,17.27,6.355
				c4.016,1.863,8.434,3.01,12.755,3.904C276.944,467.426,279.262,467.88,281.578,468.104z"/>
		</g>
		<g>
			<path style="fill:#353433;" d="M404.366,354.517c-0.499,2.086-1.08,4.247-1.699,6.422c-1.989,3.129-4.18,6.132-6.757,8.776
				c-2.317,2.384-4.984,4.41-7.219,6.869c-2.541,2.794-4.135,5.96-4.798,9.678c-0.671,3.755-0.529,7.607-0.514,11.406
				c0.015,3.792-0.127,7.57-0.931,11.295c-0.887,4.105-2.421,8.106-4.537,11.764c-1.08,0.7-2.257,1.386-3.517,2.049
				c3.755-5.245,6.154-11.533,6.854-17.888c0.805-7.346-0.738-15.042,1.609-22.187c1.095-3.315,3.129-6.109,5.588-8.553
				c2.391-2.384,5.051-4.47,7.309-6.988C399.151,363.383,401.87,358.935,404.366,354.517z"/>
		</g>
		<g>
			<path style="fill:#5FB277;" d="M154.841,161.874c-0.939,1.066-2.682,2.284-4.938,3.231c-0.94,0.403-1.979,0.749-3.086,1.022
				c-4.764,1.17-10.766,0.848-16.121-3.534c-4.173-3.424-6.301-7.066-7.08-10.489c-0.241-1.037-0.355-2.059-0.36-3.038
				c-0.047-3.202,0.987-6.078,2.415-8.236c3.322-5.022,7.732-11.363,18.572-9.624c4.904,0.786,12.8,3.229,15.198,12.787
				C161.837,153.556,157.88,158.402,154.841,161.874z"/>
			<g>
				<path style="fill:#FFFFFF;" d="M149.903,165.105c-0.94,0.403-1.979,0.749-3.086,1.022c0.185-3.995,2.022-7.598,3.693-11.244
					c1.617-3.535,3.25-7.625,1.618-11.456c-1.743-4.119-6.12-6.41-10.501-5.406c-4.668,1.068-7.337,5.722-10.326,9.031
					c-2.041,2.259-4.688,4.342-7.684,5.052c-0.241-1.037-0.355-2.059-0.36-3.038c3.713-0.997,6.457-4.85,8.824-7.645
					c3.245-3.843,7.185-7.041,12.512-6.658c4.885,0.344,9.069,3.649,10.633,8.274c1.439,4.269,0.093,8.589-1.694,12.528
					C152.175,158.559,150.343,161.757,149.903,165.105z"/>
			</g>
		</g>
		<g>
			<path style="fill:#353433;" d="M287.285,90.356c0.736-0.005,1.497,0.049,2.119,0.344c0.622,0.294,1.07,0.881,0.918,1.472
				c-0.182,0.703-0.574,0.889-1.452,0.942c-0.878,0.053-2.276,0.079-3.122-0.077c-2.189-0.404-4.241,0.161-6.35,0.798
				c-0.305,0.092-0.736,0.068-0.966-0.142c-0.994-0.909,2.341-2.2,2.982-2.441C283.081,90.626,285.482,90.369,287.285,90.356z"/>
			<path style="fill:#353433;" d="M297.013,91.433c0.661,0.159,3.279-0.52,3.885-0.787c1.449-0.639,3.307-0.683,4.933-0.591
				c0.392,0.022,0.708-0.278,0.745-0.63c0.032-0.301-0.356-0.49-0.679-0.581c-2.554-0.717-4.646-0.689-7.422-0.412
				c-0.75,0.075-1.867,0.5-2.318,1.094C295.486,90.409,295.904,91.166,297.013,91.433z"/>
			<g>
				<path style="fill:#353433;" d="M280.929,96.133c1.26-0.451,2.549-0.937,3.859-0.985c1.154-0.043,2.563,0.354,3.637,0.617
					c-0.684-0.811-2.636-1.119-3.594-1.075c-0.697,0.032-1.363,0.135-2.037,0.317C282.17,95.175,281.237,95.799,280.929,96.133z"/>
				<path style="fill:#353433;" d="M283.462,97.74c-0.484-0.026-0.926-0.28-1.254-0.647c-0.316-0.354-0.535-0.922-0.286-1.391
					c0.266-0.503,0.875-0.579,1.379-0.589c0.746-0.014,1.838-0.056,1.856,0.977C285.175,97.071,284.268,97.783,283.462,97.74z"/>
			</g>
			<g>
				<path style="fill:#353433;" d="M297.632,94.145c0,0,1.737-1.49,3.736-1.858c1.999-0.368,3.748,0.346,3.748,0.346
					s-3.009-0.191-3.694,0.004C300.737,92.831,298.467,93.569,297.632,94.145z"/>
				<path style="fill:#353433;" d="M301.438,92.423c0,0,0.685,0.308,0.675,0.96c-0.01,0.652-0.296,1.113-0.729,1.405
					c-0.433,0.292-1.096,0.44-1.457,0.276c-0.361-0.164-0.877-0.525-1.009-1.04c-0.132-0.514,0.171-0.826,0.171-0.826
					L301.438,92.423z"/>
			</g>
			<path style="fill:#353433;" d="M298.623,106.016c0,0-1.017,1.55-2.892,2.346c-1.875,0.796-3.247-0.061-3.247-0.061
				s1.796,1.638,3.61,1.002C297.908,108.668,298.623,106.016,298.623,106.016z"/>
			<g>
				<path style="fill:#353433;" d="M290.485,93.507c0.624,1.442,0.993,2.996,1.078,4.564c0.041,0.762,0.019,1.527-0.067,2.285
					c-0.077,0.674-0.271,1.349-0.25,2.031c0.039,1.27,0.988,2.064,2.234,2.041c1.277-0.024,2.507-0.733,3.318-1.689
					c0.386-0.454,0.023-0.751-0.366-0.293c-0.714,0.84-2.188,1.225-3.341,1.024c-1.399-0.244-0.807-1.975-0.687-2.925
					c0.325-2.559-0.093-5.148-1.115-7.509C291.051,92.488,290.249,92.962,290.485,93.507L290.485,93.507z"/>
			</g>
			<g>
				<path style="fill:#353433;" d="M276.71,99.508c-0.147-0.349,0.019-0.69,0.101-1.033c0.235-0.981-0.282-1.734-0.96-2.391
					c-0.653-0.633-1.409-1.294-2.228-1.702c-0.398-0.198-0.848-0.311-1.284-0.172c-0.4,0.127-0.738,0.445-0.821,0.864
					c-0.116,0.585,0.401,0.756,0.518,0.167c0.143-0.718,1.777,0.354,2.019,0.532c0.332,0.244,0.647,0.51,0.949,0.79
					c0.29,0.269,0.595,0.548,0.795,0.893c0.201,0.346,0.152,0.641,0.048,1.011c-0.107,0.378-0.174,0.749-0.081,1.137
					c0.163,0.683,1.968,1.299,2.041,1.034c0.06-0.217-0.457-0.439-0.689-0.617C277.118,100.021,276.847,99.835,276.71,99.508z"/>
			</g>
			<g>
				<path style="fill:#353433;" d="M310.97,93.562c-0.147-0.86-1.107-1.264-1.047-2.181c0.028-0.428,0.196-0.852,0.363-1.242
					c0.181-0.423,0.372-0.855,0.634-1.235c0.236-0.341,0.586-0.955,1.009-1.027c0.308-0.052,0.571-0.125,1.123,0.285
					c0.476,0.353,0.823,0.701,0.606,0.141c-0.342-0.879-1.312-1.289-2.199-0.972c-1.046,0.373-1.561,1.382-1.978,2.338
					c-0.391,0.898-0.753,1.963-0.228,2.889c0.228,0.401,0.74,0.717,0.81,1.192c0.079,0.541-0.386,1.107-0.701,1.495
					c-0.374,0.461,0.216,0.368,0.657-0.038C310.37,94.885,311.123,94.456,310.97,93.562z"/>
			</g>
			<g>
				<path style="fill:#353433;" d="M296.886,113.099c-0.309-0.095-0.618-0.19-0.927-0.285c-0.113-0.035-0.258-0.012-0.359,0.047
					c-0.097,0.056-0.189,0.167-0.214,0.278c-0.027,0.119-0.021,0.253,0.047,0.359c0.067,0.104,0.159,0.177,0.278,0.214
					c0.309,0.095,0.618,0.19,0.927,0.285c0.113,0.035,0.257,0.012,0.359-0.047c0.097-0.057,0.189-0.167,0.214-0.278
					c0.027-0.119,0.021-0.253-0.047-0.359C297.097,113.209,297.005,113.136,296.886,113.099L296.886,113.099z"/>
			</g>
		</g>
	</g>
</g>
</svg>
