<?xml version="1.0" encoding="utf-8"?>
<!-- Generator: Adobe Illustrator 27.5.0, SVG Export Plug-In . SVG Version: 6.00 Build 0)  -->
<svg version="1.1" xmlns="http://www.w3.org/2000/svg" xmlns:xlink="http://www.w3.org/1999/xlink" x="0px" y="0px"
	 viewBox="0 0 500 500" style="enable-background:new 0 0 500 500;" xml:space="preserve">
<g id="BACKGROUND">
	<rect style="fill:#FFFFFF;" width="500" height="500"/>
</g>
<g id="OBJECTS">
	<ellipse style="fill:#DEE2D9;" cx="253.45" cy="457.249" rx="163.106" ry="16.444"/>
	<g>
		<g>
			<path style="fill:#AEDF8F;" d="M425.318,206.524l0.146,0.151C425.42,206.563,425.371,206.529,425.318,206.524z"/>
			<path style="fill:#AEDF8F;" d="M429.727,231.104l-0.055-0.009c0.028,0.141,0.067,0.333,0.13,0.644L429.727,231.104z"/>
			<path style="fill:#AEDF8F;" d="M418.333,173.937l0.063,0.202C418.373,174.046,418.378,173.981,418.333,173.937z"/>
			<path style="fill:#AEDF8F;" d="M422.385,193.301c-0.102-0.037-0.16-0.129-0.214-0.219
				C422.189,193.208,422.233,193.302,422.385,193.301z"/>
			<path style="fill:#AEDF8F;" d="M426.475,236.998l0.237-0.333C426.583,236.702,426.47,236.827,426.475,236.998z"/>
			<path style="fill:#AEDF8F;" d="M430.388,241.969c-0.048-0.07-0.124-0.147-0.201-0.224
				C430.225,241.851,430.261,241.99,430.388,241.969z"/>
			<path style="fill:#AEDF8F;" d="M344.997,75.495l0.881,0.095C345.651,75.42,345.317,75.478,344.997,75.495z"/>
			<path style="fill:#AEDF8F;" d="M344.068,77.6l-0.128-0.163C343.971,77.519,344.016,77.568,344.068,77.6z"/>
			<path style="fill:#AEDF8F;" d="M424.393,232.348c-0.366-0.191-0.153-0.822-0.441-0.746
				C424.073,231.871,423.953,232.324,424.393,232.348z"/>
			<path style="fill:#AEDF8F;" d="M394.702,143.905l-0.096-0.149C394.642,143.832,394.672,143.875,394.702,143.905z"/>
			<polygon style="fill:#AEDF8F;" points="344.216,77.787 344.245,77.624 344.068,77.6 			"/>
			<polygon style="fill:#AEDF8F;" points="391.559,116.68 391.565,116.689 391.65,116.71 			"/>
			<path style="fill:#AEDF8F;" d="M390.922,115.012c0.1,0.078,0.196,0.154,0.303,0.239
				C391.133,115.076,391.029,115.023,390.922,115.012z"/>
			<path style="fill:#AEDF8F;" d="M344.997,75.495l-0.502-0.053C344.647,75.503,344.821,75.505,344.997,75.495z"/>
			<path style="fill:#AEDF8F;" d="M422.53,194.567l-0.028,0.157C422.575,194.721,422.622,194.7,422.53,194.567z"/>
			<polygon style="fill:#AEDF8F;" points="411.471,184.567 411.47,184.563 411.464,184.564 			"/>
			<path style="fill:#AEDF8F;" d="M412.008,185.113c0.014-0.216-0.275-0.449-0.537-0.546
				C411.524,184.768,411.636,184.941,412.008,185.113z"/>
			<polygon style="fill:#AEDF8F;" points="414.046,196.168 414.077,196.16 414.047,196.16 			"/>
			<polygon style="fill:#AEDF8F;" points="408.736,177.083 408.75,177.083 408.742,177.071 			"/>
			<path style="fill:#AEDF8F;" d="M407.466,248.056c0.073,0.059,0.19,0.038,0.265,0.095c-0.265-0.095-0.323-0.372-0.429-0.568
				c0.074-0.515,0.486,0.272,0.691,0.092l-0.22-0.75l0.056-0.034c-0.17-0.169-0.297-0.339-0.101-0.462
				c0.336,0.155,0.646,0.172,0.91,0.268l-0.806-0.644c0.307,0.016,0.32-0.777,0.674-0.264l-0.426-1.144l0.556-0.244
				c-0.177-0.255-0.293-0.235-0.277,0.119c0.029-0.434-1.482-1.526-0.281-1.599c-0.717-0.803-0.614-1.182-1.199-2.224
				c0.759,0.724,0.423-1.153,0.908-0.305c0.115-0.596-0.543-0.55-0.749-0.944c0.145-0.455,0.761-0.422,1.085-0.05l-0.396-0.434
				l0.118-0.02l-0.441-0.352c0.191-0.537,0.557-0.242,0.513-0.737l-0.541,0.025l0.217-0.397c-0.205,0.18-0.381-0.076-0.512-0.41
				l0.117-0.021l-0.207-0.395c0.42,0.337,0.011-0.41,0.429-0.311c-0.068-0.365-0.077-0.371-0.339-0.995l-0.322,0.201
				c-0.526-0.768,0.513-0.165,0.365-0.857l-0.393,0.143c0.424-1.153-0.82-1.575-0.572-2.41c0.203,0.393,0.646,0.171,0.527,0.192
				c-0.311-0.59-0.469-1.639-1.127-2.165c0.525-0.383,0.686-0.482,0.776-1.215c-0.162-0.476-0.236-0.533-0.618-0.607
				c0.105-0.525-0.463-1.322-0.042-1.451c-0.367-0.025-0.043-0.439-0.396-0.626l0.16-0.098l-0.395,0.142
				c0.689-1.058-0.878-1.278-0.308-2.315l0.146,0.118l-0.251-0.314c0.162-0.1,0.309,0.017,0.545-0.025l-0.353-1.661l-0.22,0.399
				c-0.131-0.335-0.585-0.47-0.439-0.927c0.777,0.506-0.119-0.551,0.321-0.774l0.251,0.313c-0.163-0.472-0.163-0.472-0.56-0.331
				c-0.305-0.589,0.661-0.621,0.075-1.088l0.088,0.415c-0.204,0.18-0.614-0.032-0.675-0.309c0.046-0.081,0.176-0.32,0.28-0.123
				c-0.282-0.453-0.266-1.244-0.485-1.42c0.057-0.298,0.367-0.282,0.513-0.165c-0.63-0.963-0.046-0.495-0.674-1.461l0.235-0.04
				l-0.369-0.293l0.353-0.638l-0.25,0.26c-0.131-0.335-0.35-0.511-0.322-0.947l0.381,0.078c-0.441-0.928,0.279-1.27-0.441-2.077
				c0.046-0.079,0.192,0.038,0.265,0.099c-0.761-0.726,0.44-0.8-0.44-1.502c0.129,0.024,0.246-0.105,0.353-0.096l-0.324-0.338
				l0.468-0.084l-0.763-0.152l0.412-0.36l-0.261-0.098c0.775-0.64-0.046-1.068,0.467-1.807l-0.557,0.244
				c-1.583-1.15-0.19-3.483-1.202-5.095l0.468-0.083l-0.731-0.588c0.263-0.478,0.455,0.135,0.659-0.045
				c-0.455-0.71-0.764-0.153-1.13-1.019c0.19-0.537,0.381,0.076,0.602,0.251c-0.447-0.785-1.025-1.966-0.923-2.627l-0.175,0.023
				c-0.353-0.511-0.339-1.303-0.53-1.915c0.216-0.038,0.29,0.107,0.374,0.251c-0.03-0.23,0.037-0.57-0.228-0.707l0.458,0.134
				c-0.044-0.495-0.645-1.32-0.206-1.542c-0.163,0.102-0.515,0.164-0.601-0.252c0.645-0.402-0.588-1.044-0.381-1.796
				c0.188,0.037,0.35,0.511,0.323,0.372c0.099-0.376-0.307-0.591-0.602-0.827l0.307,0.018l-0.792-1.438
				c0.645-0.403-0.483-1.422,0.059-1.445c-0.118-0.554-0.19,0.537-0.452-0.135c0.246-0.258-0.307-0.591,0.16-0.676l0.073,0.061
				l-0.162-0.475l0.529,0.193c-0.206-0.393-0.736-0.587-1.086-0.522c0.148-0.458-0.205-0.968,0.159-1.251l0.148,0.12
				c-0.47-1.067,0.76-2.153-0.24-2.838c0.046-0.081,0.162-0.102,0.193,0.036l-0.152-0.697l0.383,0.079l-0.826-1.009l0.233-0.043
				c-0.107-0.778-0.543-1.929-0.877-2.883l0.148,0.117c-0.644-0.969-0.06-1.083-0.527-1.794l0.12,0.056l-0.204-0.698l0.266,0.095
				c-0.637-0.386,0.227-1.656-0.1-1.224c-0.3-0.236-0.708-0.67-1.014-0.68c-0.243-0.757,0.241-0.267,0.299-0.794
				c-0.137-0.56-0.556-0.548-0.573-1.355l0.233-0.049c-0.145-0.34-0.371-0.512-0.551-0.991l0.153,0.114
				c-0.72-0.659,0.374-1.19-0.815-1.526c0.082-0.388-0.257-0.981,0.209-1.085c-0.607-0.906-0.988-1.637-1.493-2.563
				c0.692-0.391-0.114-0.196,0.11-0.927l-0.383,0.17c-0.501-1.373-0.138-3.278-0.845-4.759l0.38-0.181l-0.546-0.155
				c-0.207-0.855-0.468-1.83-0.736-2.757c-0.294-0.916-0.614-1.776-0.877-2.425c-0.38-0.345-1.113-0.802-1.252-1.528l0.083,0.049
				c-0.723-1.073-1.347-2.255-1.733-3.588c0.198,0.009,0.254-0.164,0.423-0.068c-0.563-0.116-0.364-0.725-0.477-0.999l-0.141,0.439
				c-0.53-0.198-0.416-0.859-0.221-1.163l-0.673-0.382l0.111-0.172l-0.248-0.01l0.363-0.523c-0.167-0.094-0.643-0.781-1.229-0.794
				c0.141-0.13,0.027-0.714,0.307-0.35c-0.274-0.705-0.525-1.421-0.837-2.11l-0.014,0.397c-0.357,0.216-0.908-0.273-0.897-0.667
				c0.515,0.264,0.552-0.221,0.738-0.53c-0.345-0.176-0.209,0.397-0.491,0.352c-0.43-0.223-0.934-0.885-0.86-1.149l0.257,0.132
				c-0.38-0.398,0.158-0.933-0.112-1.378c-0.515-0.264-0.396-0.708-0.992-0.302c-0.441-0.53,0.315-0.448,0.277-0.673
				c-0.451-0.126-0.688-1.059-0.42-1.333c-1.086,0.148-0.544-1.763-1.394-1.472l0.166-0.713c-0.218,0.096-0.74,0.251-1.048-0.092
				c0.016-0.486,0.429-0.596,0.578-0.822l-0.913,0.172c-0.192-1.276-0.82-2.544-1.497-3.816c-0.718-1.249-1.469-2.511-1.852-3.844
				c-0.803-0.911-1.919-1.984-2.627-3.182l0.182,0.066l-0.586-1.27l0.233,1.046c-0.257-0.194-0.533-0.295-0.688-0.543
				c-0.562-1.438-1.316-3.385-2.797-4.642c-1.556-0.39,0.248-1.156-1.053-1.664c0.136,0.026,0.275-0.028,0.41-0.013
				c-1.028-0.808-1.578-1.25-2.807-1.899c0.891-0.477-0.508-0.636-0.017-0.859l-0.39,0.159c0.035-0.372-0.295-0.943-0.008-1.041
				l-0.755-0.123l0.302-0.287c-0.439-0.588-1.706-1.596-1.286-2.413c-0.825-0.512-1.654-1.35-2.443-2.293
				c-0.806-0.929-1.61-1.936-2.304-2.845c-0.473-0.021-0.938-0.499-1.311-0.865l0.005-0.739c-0.469-0.297-1.312-0.306-1.401-0.882
				l0.134-0.041c-0.437-0.331-0.607-0.867-1.294-0.927c-0.345-0.39-0.543-0.895-0.26-1.131c-0.535,0.222-0.653-1.06-0.653-1.06
				s-0.31-0.361-0.863-1.002c-0.563-0.632-1.336-1.578-2.388-2.629c-1.035-1.067-2.266-2.318-3.631-3.669
				c-1.377-1.337-2.961-2.697-4.576-4.108c-6.528-5.58-14.751-10.612-19.099-10.768c-0.433,0.192-1.147,0.027-1.202,0.569
				c-0.52-0.168-0.32-0.893-0.631-0.615c0.44,0.621-0.768,0.742-0.475,1.545l-0.423-0.167c-0.237,0.187,0.684,0.068,0.3,0.438
				l0.529-0.553c0.235,0.296,0.31,0.536,0.269,0.818c0.447-0.054,1.211-0.773,1.629,0.047l-0.212-0.088
				c0.564,0.346,0.055,0.624,0.098,0.803l-0.117-0.087l0.24,0.62c-0.202-0.442-1.127-0.327-0.801-0.161
				c0.526,0.609-0.063-0.264,0.477-0.011c0.325,0.172,0.007,0.443-0.141,0.626l0.557,0.341c-0.222,0.273-0.346-0.257-0.338,0.186
				l0.897,0.156c-0.393,0.805,0.992,0.154,0.811,1.04c-0.612-0.16-0.132,0.271-0.38,0.45c0.404,0.259,0.823,0.499,1.216,0.774
				c0.035,0.18-0.467-0.005-0.265,0.089c0.071,0.357,0.486,0.091,0.6,0.183c-0.046,0.269,0.87,0.629,0.482,1.075
				c0.543,0.89,0.783-0.351,1.309,0.455c-0.123,0.354-0.632-0.36-0.533,0.172l0.837,0.453c-0.175,0.086-0.503,0.349-0.738,0.08
				c1.759,1.879,1.667,4.13,3.731,5.212c-0.022,0.529-0.363,0.073-0.721,0.146c1.653,0.603,1.205,2.168,2.324,3.003l0.25-0.249
				c0.799,2.04,2.949,3.139,4.306,4.905l-0.028-0.352c0.46-0.048,0.853,0.248,1.235,0.372c-0.082,0.165-0.715,0.371-0.137,0.687
				c-0.01-0.179-0.123-0.45,0.056-0.522c0.384,0.965,1.31,2.11,2.402,3.299c1.093,1.188,2.335,2.439,3.223,3.718
				c3.138,2.782,5.641,6.588,8.431,9.565c-0.416-0.463,0.431-0.805,0.573-0.315c-0.347,1.91,1.608,1.573,1.642,3.204
				c0.469,0.389,0.85,0.825,1.171,1.292c0.312,0.475,0.582,0.967,0.864,1.442c0.566,0.951,1.182,1.831,2.312,2.388l-0.317,0.274
				c0.042,0.372,0.333,0.277,0.576,0.53l-0.102,0.06c0.377,0.73,1.264,1.322,1.371,1.816l0.408-0.238
				c0.309,0.379-0.16,0.411,0.347,0.672l-0.205,0.119l0.703,0.231c-0.721,0.408,0.724,1.166,0.632,1.69
				c0.47,0.443,1.487,1.214,1.836,2.121c-0.266,0.374,0.359,1.36,0.572,2.099c0.845,1.178,2.13,2.826,2.879,4.517l0.452-0.291
				l0.27,0.401c-0.106,0.051-0.128,0.137-0.214,0.102c-0.348,0.618,0.716,0.874,0.578,1.391c0.306-0.443-0.101-0.329-0.226-0.573
				c0.027-0.466,0.669-0.387,0.702,0.204l-0.109,0.047l0.429,0.182c-0.348,0.235-0.355,0.615-0.699,0.847
				c0.437,0.662,0.949,1.142,1.432,1.648c0.478,0.508,0.892,1.059,1.185,1.827c-0.494,0.061,0.647,0.99-0.23,1.06
				c0.725,0.733,0.514-0.436,1.234-0.293c0.114,0.25,0.449,0.408,0.202,0.585c-0.235-0.028-0.341,0.416-0.51,0.251l0.359,0.554
				c-0.028,0.083-0.196,0.004-0.277-0.036c1.031,0.986,0.635,2.315,1.547,3.204c0.304-0.042-0.125-0.465,0.179-0.51
				c1.05,0.846-0.032,1.184,0.827,2.028l-0.468-0.045c0.408,0.214,0.793,0.217,0.747,0.889c-0.396,0.288-0.572-0.3-0.896-0.469
				c0.154,0.378,0.704,1.263,0.968,0.804c0.351,0.382,0.036,0.713,0.027,1.004c0.112-0.038,0.1-0.541,0.424-0.369
				c0.028,0.715,0.499,1.633,0.754,2.408c-0.112,0.038-0.256,0.159-0.337,0.116c0.825,0.367-0.188,0.709,0.279,1.484
				c0.542,1.071,1.256,2.268,1.93,3.483c0.647,1.224,1.199,2.486,1.53,3.63c0.775,0.28,1.056,0.987,1.451,1.657l-0.768,0.339
				l0.473,0.51c-0.152,0.32-0.316-0.408-0.461,0.118l0.578,0.063c-0.266,0.139,0.331,1.603-0.581,0.78l0.765,2.336
				c0.141,0.527,0.765,0.101,0.75,0.737c-0.198,0.188-0.227-0.159-0.5-0.025c-0.056,1.902,2.184,1.546,2.307,3.291l-0.149-0.109
				c0.297,0.218,0.426,0.757,0.544,0.732c0.753-0.439-0.528-0.171-0.196-0.806c0.698-0.15,0.554,0.521,1.065,0.342
				c-0.133,0.454,0.321,0.573,0.46,0.9c-0.263,0.692,0.279,1.436-0.138,2.016c0.297,0.223,1.061,0.359,1.259,0.962
				c-0.417,0.579-0.543,0.033-0.579,0.68l0.427-0.01c0.073,0.504-0.061,0.457-0.254,0.489c0.126,0.527,0.669,0.291,0.59,1.013
				l-0.488-0.265c0.285,0.445,0.269,0.661,0.418,1.346c-0.234,0.044-0.292-0.231-0.279-0.446c-0.494,0.52,0.427,0.562,0.415,0.778
				c0.16-0.102,0.112-0.59,0.569-0.463c0.018,0.354,0.735,0.578,0.327,0.939l-0.484-0.269c0.499,0.623,0.601,0.247,0.661,1.093
				c-0.042-0.036-0.136,0.01-0.224,0.014c0.648,0.381,0.36,1.166,0.522,1.932l-0.145-0.116c0.216,0.271,0.618,0.349,0.634,0.521
				c0.117-0.489,0.265-0.401,0.641-0.537c-0.512,0.736,0.996,0.68,0.849,1.711c-0.232,0.042-0.57-0.113-0.394-0.431
				c-0.763-0.149-1.349-0.045-1.816-0.533c0.25,0.313,0.453,0.706,0.145,0.69l0.66-0.047c0.073,0.21,0.079,0.389,0.121,0.55
				c0.423-0.008,0.54-0.596,0.932-0.165c0.352,0.509-0.57,0.459-0.262,0.476c0.453,0.708,0.762,0.15,0.748,0.945
				c-0.072-0.061-0.219-0.178-0.176-0.257c-0.116,0.595,0.456,1.28-0.265,1.626c-0.191-0.037-0.423,0.006-0.411-0.213l0.118-0.021
				c-0.705-0.448,0.277,0.452-0.455,0.439c0.398-0.143,0.5,0.63,0.514,0.985l0.439-0.223c1.686,0.777-0.938,0.169-0.468,1.235
				c0.498,0.627,0.06-0.299,0.5,0.052c0.044,0.497-0.324,0.777,0.06,1.424c-0.134,0.24-0.279,0.698-0.792,0.861
				c0.322,0.371,0.102,1.344,0.673,1.458c0.249-0.833-0.734-0.586-0.277-1.601l0.57,0.111c0.126,0.593,0.578,1.279,0.499,1.729
				c0.078-0.107,0.199-0.176,0.322-0.151c0.41,0.787,0.982,0.9,1.039,1.751c-0.438,0.223-0.482-0.272-0.613-0.608
				c-0.236,0.617,0.115,0.555,0.175,1.405c-0.396,0.145-0.118-0.553-0.542-0.548l0.363,0.868l-0.083,0.021
				c0.715-0.04,0.12,0.701,0.467,1.2c0.335,1.304,1.303,1.275,2.036,1.861c-0.133,0.24-0.292,0.34-0.485,0.301
				c0.219-0.395-0.004-0.279-0.211-0.347c0.185,0.422-0.417,1.129-0.756,0.952c0.38,0.65,0.293-0.341,0.617,0.033l0.205,0.968
				c0.32-0.2,0.308-0.556,0.703-0.127c0.204,0.394,0.188,0.613,0.307,1.165c-0.192-0.036-0.484,0.304-0.57-0.111
				c-0.062,0.296,0.029,0.713,0.409,0.788c0.161-0.676,0.555,0.905,0.98,0.325l-0.161,0.676c-0.029-0.138-0.264-0.096-0.248-0.313
				c-0.484,0.301,0.278,0.451,0.382,0.647c-0.047,0.236,0.049,0.794-0.144,0.89c0.196,0.152,0.2,0.643-0.047,0.796
				c0.178,0.255,0.351-0.063,0.543-0.024l0.205,0.966c-0.28,0.124-1.071,0.406-1.219,0.29c0.366,0.294,0.897-0.086,1.012,0.467
				c-0.647-0.173-0.249,0.831-1.042,0.545c-0.335,0.417-0.086,1.305,0.192,1.759c0.529,0.193,0.116-0.595,0.586-0.679
				c0.526,1.34,1.819,1.108,1.861,2.177l0.061-0.295c0.425,0.568,0.35,0.511,0.835,0.783c-0.615-0.033-1.349,1.101-0.956,2.11
				c0.311,0.016,0.396-0.718,0.894-0.662l0.266,0.669c-0.033,0.061-0.148,0.009-0.244-0.062c0.364,0.568-0.444,1.336,0.273,1.348
				l-0.673,0.837l0.293-0.338c0.305,0.015,0.571,0.688,0.719,0.804c0.499,0.63,0.321,0.948,0.058,1.426
				c0.204-0.182,0.66-0.622,0.894-0.088c-0.929,0.225-0.039,1.254-0.524,1.357c0.071,0.222-0.114,0.693,0.277,0.624l-0.587,0.106
				c0.819-0.148,0.996,0.681,1.303,1.273c-1.13,0.13,0.264,0.669-0.658,1.195c0.774-0.067,0.584,1.042,1.245,0.995
				c0.162,0.475-0.542,0.599-0.747,0.781l0.335,0.156c-0.284,0.331-0.1,1.251-0.198,1.851l0.786,0.339l-0.249,0.26
				c0.188,0.039,0.394,0.432,0.57,0.113l0.032,0.281c0.723-0.156,0.297,0.332,0.744,0.8c-0.082,0.154-0.262,0.164-0.389,0.069
				c0.064,0.273-0.334,0.248-0.535,0.456c0.133-0.238,1.539,0.656,1.671-0.156c0.279-0.123,0.603,0.25,0.544,0.549l-0.601,0.322
				l0.762,0.15c0.203,0.394-0.161,0.674-0.147,1.03c-0.13-0.335-1.438-0.46-1.189,0.429c-0.206-0.448-0.625-0.59-0.822-0.799
				c0.023,0.191-0.015,0.299-0.363,0.079c0.382,0.648,0.456,0.135,0.717,0.804c-0.585,0.105-0.719,0.345-0.76,0.997l0.305-0.557
				c0.076,0.004,0.134,0.022,0.178,0.048c0.018-0.187,0.095-0.257,0.307-0.349c0.03,0.138,0.923,0.623,0.603,0.825
				c0.716-0.918,1.01,1.039,1.436,0.46c0.188,0.037,0.348,0.511,0.072,0.633c-0.586-0.469-0.542,0.598-0.969,0.605
				c0.222,0.173,0.309-0.561,0.603-0.324c0.129,0.334-0.161,0.675-0.292,0.912l-0.146-0.117l-0.12,0.596
				c0.31,0.016,0.353-0.636,0.631-0.184c-0.087,0.159,0.19,0.612-0.043,0.654c-0.456-0.135-0.938,0.166-1.145-0.227
				c0.132,0.336,0.485,1.421,0.909,0.841l0.089,0.418c0.176-0.32,0.424-1.155,0.719-0.346l-0.117,0.021l0.586,0.468l-0.232,0.325
				c0.144-0.044,0.302,0.014,0.348,0.23c-0.158,0.099-0.174,0.317-0.41,0.359c0.191,0.613,0.47,0.489,0.659,0.528
				c0.132,0.336,0.044,0.496-0.337,0.419c0.047,0.494,0.338,1.303,0.118,1.703c0.425,0.57,0.087-0.161,0.574,0.113
				c-0.865,0.8,0.16,2.195,0.556,3.2c0.775-0.482,0.231,0.198,0.949,0.24c-0.277,0.05-0.388,1.094-0.833,0.316l0.236,0.531
				c-0.384,0.499-0.601-0.825-1.114-0.088c0.19,0.614,1.26,0.78,1.127,1.592c-0.686-0.09,0.353,0.512-0.379,0.5
				c-0.265-0.096-0.249-0.315-0.352-0.51l-0.088,0.159c0.175,1.405,0.837,0.21,1.451,0.816c0.296,0.809-0.32,0.776-0.601,0.897
				c-0.088,0.159,0.118,0.552,0.338,0.73c-0.512-0.411,0.146-1.032,0.6-0.898c-0.615,0.542,0.264,1.244,0.602,1.4
				c0.441-1.37-0.178-0.829,0.338-2.142c-0.264-0.097-0.895,0.088-0.806-0.645c0.424,0.34,0.347-0.117,0.419-0.261
				c-0.333,0.22-0.273-0.425-0.478-0.59c0.249-0.26,0.951,0.189,0.923-0.524l-0.895,0.088c0.061-0.297,0.661-0.045,0.308-0.557
				c0.529,0.192,0.674-0.266,1.011,0.462C409.223,248.888,407.963,248.684,407.466,248.056z"/>
			<path style="fill:#AEDF8F;" d="M377.088,98.825c0.042-0.017,0.085-0.041,0.132-0.078
				C377.167,98.767,377.124,98.795,377.088,98.825z"/>
			<path style="fill:#AEDF8F;" d="M413.667,196.084l0.394,0.432l-0.015-0.348C413.942,196.194,413.82,196.208,413.667,196.084z"/>
			<path style="fill:#AEDF8F;" d="M410.254,180.823l-0.157-0.085C410.138,180.811,410.197,180.824,410.254,180.823z"/>
			<path style="fill:#AEDF8F;" d="M408.736,177.083c-0.094,0.018-0.205,0.054-0.314,0.191
				C408.596,177.516,408.654,177.245,408.736,177.083z"/>
			<path style="fill:#AEDF8F;" d="M417.386,205.036c0.104,0.056,0.171,0.057,0.224,0.032
				C417.551,205.022,417.48,205.002,417.386,205.036z"/>
			<path style="fill:#AEDF8F;" d="M424.063,228.099c-0.015-0.067-0.054-0.149-0.138-0.26
				C423.931,227.966,423.99,228.043,424.063,228.099z"/>
			<path style="fill:#AEDF8F;" d="M415.671,198.955c0.047,0.138,0.131,0.191,0.214,0.221
				C415.846,199.089,415.788,199.008,415.671,198.955z"/>
			<polygon style="fill:#AEDF8F;" points="423.747,227.583 423.707,227.229 423.615,227.246 			"/>
			<path style="fill:#AEDF8F;" d="M423.746,230.081c-0.02-0.137-0.067-0.318-0.056-0.444
				C423.609,229.838,423.641,229.973,423.746,230.081z"/>
			<path style="fill:#AEDF8F;" d="M420.558,213.908l-0.02-0.034C420.269,213.658,420.397,213.804,420.558,213.908z"/>
			<polygon style="fill:#AEDF8F;" points="422.562,226.287 422.568,226.237 422.415,226.169 			"/>
			<path style="fill:#AEDF8F;" d="M423.952,231.602l-0.13-0.15c-0.004,0.057-0.004,0.123-0.002,0.207L423.952,231.602z"/>
			<path style="fill:#AEDF8F;" d="M421.185,219.213c0.197,0.053,0.324,0.061,0.413,0.042
				C421.563,219.143,421.465,219.09,421.185,219.213z"/>
			<path style="fill:#AEDF8F;" d="M120.467,388.298l-0.039,0.035c0.074,0.053,0.175,0.124,0.339,0.24L120.467,388.298z"/>
			<path style="fill:#AEDF8F;" d="M104.003,371.023c-0.092,0.027-0.158-0.001-0.219-0.03
				C103.822,371.063,103.877,371.099,104.003,371.023z"/>
			<path style="fill:#AEDF8F;" d="M120.884,393.82l0-0.357C120.82,393.579,120.805,393.731,120.884,393.82z"/>
			<path style="fill:#AEDF8F;" d="M125.471,393.383c-0.059,0.001-0.137,0.021-0.215,0.041
				C125.326,393.449,125.41,393.491,125.471,393.383z"/>
			<path style="fill:#AEDF8F;" d="M77.742,289.315l0.433,0.464C78.184,289.607,77.942,289.465,77.742,289.315z"/>
			<path style="fill:#AEDF8F;" d="M117.519,392.809c-0.324,0.159-0.459-0.337-0.617-0.09
				C117.099,392.779,117.22,393.112,117.519,392.809z"/>
			<polygon style="fill:#AEDF8F;" points="75.374,289.763 75.527,289.717 75.444,289.62 			"/>
			<polygon style="fill:#AEDF8F;" points="84.041,326.197 84.042,326.203 84.105,326.229 			"/>
			<path style="fill:#AEDF8F;" d="M84.316,325.099l0.143,0.192C84.466,325.172,84.402,325.124,84.316,325.099z"/>
			<path style="fill:#AEDF8F;" d="M77.742,289.315l-0.248-0.266C77.531,289.146,77.631,289.232,77.742,289.315z"/>
			<path style="fill:#AEDF8F;" d="M104.378,371.718l0.009,0.108C104.447,371.789,104.482,371.752,104.378,371.718z"/>
			<polygon style="fill:#AEDF8F;" points="92.971,370.426 92.969,370.423 92.964,370.427 			"/>
			<path style="fill:#AEDF8F;" d="M93.547,370.561c-0.027-0.149-0.326-0.181-0.576-0.135
				C93.055,370.537,93.187,370.605,93.547,370.561z"/>
			<polygon style="fill:#AEDF8F;" points="97.601,376.944 97.626,376.923 97.6,376.937 			"/>
			<polygon style="fill:#AEDF8F;" points="89.339,366.407 89.351,366.402 89.342,366.396 			"/>
			<path style="fill:#AEDF8F;" d="M135.646,396.124c-0.212,0.133-0.553,0.68-0.794,0.207c0.419-0.107,0.182-0.309,0.172-0.439
				c-0.132,0.356-0.354-0.046-0.558,0.006c0.063-0.318,0.71-0.56,0.408-0.934l-0.566,0.672c-0.078-0.207,0.426-0.484-0.015-0.523
				c0.433-0.261,0.35-0.614,0.862-0.448c-0.092-0.946-1.018-0.181-1.61-0.188l0.219-0.13c-0.221,0.132-0.367,0.015-0.51-0.03
				c-0.14-0.349,0.433-0.171,0.506-0.414l-0.426-0.284l0.026-0.058c-0.178,0.017-0.329,0.004-0.238-0.198
				c0.288-0.136,0.508-0.335,0.724-0.459l-0.789,0.173c0.217-0.197-0.056-0.658,0.373-0.602l-0.705-0.366l0.304-0.507
				c-0.213-0.027-0.289,0.062-0.152,0.251c-0.129-0.262-1.591,0.109-0.76-0.719c-0.792,0.013-0.863-0.254-1.62-0.505
				c0.785-0.055-0.064-0.946,0.561-0.755c-0.106-0.421-0.571,0.022-0.849-0.081c-0.039-0.358,0.426-0.723,0.779-0.711l-0.426-0.004
				l0.08-0.085l-0.435,0.071c-0.028-0.431,0.335-0.488,0.149-0.747l-0.394,0.35l0.038-0.364c-0.096,0.231-0.307,0.192-0.51,0.079
				l0.081-0.084l-0.278-0.102c0.42-0.063-0.119-0.244,0.226-0.443c-0.164-0.168-0.172-0.166-0.562-0.365l-0.183,0.311
				c-0.622-0.141,0.339-0.406,0.03-0.729l-0.257,0.321c-0.002-0.942-1.072-0.459-1.118-1.105c0.267,0.116,0.546-0.275,0.46-0.194
				c-0.404-0.17-0.815-0.698-1.478-0.634c0.308-0.526,0.407-0.677,0.28-1.158c-0.245-0.198-0.317-0.192-0.637-0.025
				c-0.046-0.379-0.693-0.551-0.389-0.86c-0.299,0.185-0.141-0.243-0.469-0.164l0.105-0.146l-0.283,0.3
				c0.299-1.012-1.022-0.305-0.811-1.236l0.147-0.007l-0.28-0.057c0.109-0.146,0.256-0.153,0.439-0.303
				c-0.232-0.265-0.453-0.54-0.661-0.826l-0.096,0.36c-0.178-0.14-0.58,0.008-0.558-0.351c0.747-0.083-0.215-0.281,0.102-0.642
				l0.273,0.065c-0.233-0.208-0.233-0.208-0.532,0.079c-0.377-0.211,0.419-0.715-0.166-0.708l0.159,0.211
				c-0.132,0.213-0.517,0.288-0.626,0.147c0.021-0.073,0.079-0.284,0.208-0.215c-0.33-0.139-0.482-0.632-0.702-0.633
				c-0.014-0.211,0.251-0.352,0.397-0.352c-0.725-0.284-0.148-0.271-0.86-0.571l0.191-0.137l-0.364-0.009l0.185-0.566l-0.165,0.28
				c-0.171-0.148-0.388-0.156-0.442-0.443l0.338-0.129c-0.541-0.375,0.016-0.918-0.741-1.089c0.026-0.07,0.172-0.063,0.245-0.059
				c-0.781-0.105,0.242-0.692-0.638-0.73c0.116-0.042,0.195-0.174,0.289-0.216l-0.338-0.064l0.392-0.26l-0.689,0.245l0.303-0.407
				l-0.241,0.052c0.579-0.739-0.195-0.654,0.147-1.336l-0.451,0.39c-1.543-0.067-0.682-2.081-1.751-2.696l0.406-0.236l-0.716-0.088
				c0.181-0.404,0.42-0.091,0.582-0.284c-0.484-0.272-0.698,0.199-1.123-0.21c0.11-0.412,0.35-0.096,0.567-0.071
				c-0.486-0.323-1.139-0.855-1.12-1.307l-0.156,0.079c-0.382-0.189-0.447-0.698-0.666-1.026c0.192-0.099,0.272-0.033,0.36,0.029
				c-0.047-0.136-0.014-0.377-0.266-0.372l0.427-0.074c-0.08-0.299-0.696-0.617-0.313-0.908c-0.14,0.12-0.456,0.28-0.569,0.045
				c0.558-0.472-0.624-0.465-0.495-1.011c0.176-0.038,0.363,0.207,0.327,0.129c0.061-0.27-0.329-0.271-0.62-0.325l0.285-0.088
				c-0.286-0.214-0.562-0.435-0.828-0.663c0.572-0.459-0.524-0.764-0.025-0.945c-0.139-0.319-0.147,0.402-0.426,0.051
				c0.214-0.239-0.317-0.286,0.112-0.48l0.071,0.017l-0.176-0.254l0.502-0.035c-0.212-0.187-0.715-0.154-1.037-0.011
				c0.114-0.335-0.243-0.558,0.082-0.842l0.144,0.033c-0.504-0.541,0.621-1.573-0.325-1.736c0.042-0.064,0.15-0.109,0.182-0.029
				l-0.157-0.401l0.36-0.052l-0.793-0.421l0.218-0.088c-0.114-0.463-0.541-1.076-0.867-1.595l0.142,0.038
				c-0.605-0.461-0.043-0.672-0.474-1.016l0.112,0.009l-0.178-0.396l0.25,0.001c-0.597-0.106,0.257-1.09-0.064-0.748
				c-0.278-0.084-0.654-0.272-0.946-0.216c-0.209-0.428,0.238-0.217,0.31-0.56c-0.11-0.323-0.517-0.233-0.497-0.736l0.225-0.074
				c-0.115-0.188-0.321-0.255-0.461-0.526l0.137,0.045c-0.64-0.292,0.44-0.811-0.67-0.824c0.108-0.258-0.171-0.577,0.284-0.716
				c-0.505-0.473-0.814-0.873-1.203-1.389c0.708-0.336-0.088-0.11,0.218-0.599l-0.387,0.154c-0.326-0.81,0.349-2.052-0.11-2.898
				l0.393-0.142l-0.5-0.052c-0.105-1.032-0.299-2.339-0.52-3.117c-0.281-0.202-0.895-0.464-0.843-0.917l0.067,0.03
				c-0.41-0.663-0.77-1.389-0.729-2.228c0.184,0.011,0.286-0.093,0.418-0.03c-0.497-0.087-0.137-0.455-0.165-0.625l-0.258,0.263
				c-0.443-0.14-0.149-0.542,0.123-0.717l-0.516-0.265l0.157-0.1l-0.23-0.019l0.5-0.3c-0.128-0.066-0.364-0.508-0.912-0.555
				c0.172-0.07,0.244-0.431,0.396-0.192l-0.111-1.332l-0.15,0.239c-0.405,0.102-0.748-0.244-0.602-0.482
				c0.387,0.207,0.588-0.084,0.868-0.251c-0.259-0.137-0.331,0.219-0.577,0.166c-0.324-0.173-0.562-0.623-0.393-0.776l0.189,0.106
				c-0.205-0.28,0.486-0.543,0.401-0.836c-0.378-0.214-0.106-0.464-0.805-0.293c-0.213-0.368,0.455-0.229,0.503-0.366
				c-0.371-0.129-0.247-0.71,0.101-0.834c-1.079-0.056,0.193-1.103-0.697-1.055l0.444-0.391c-0.237,0.023-0.773,0.033-0.905-0.217
				c0.22-0.282,0.638-0.279,0.869-0.387l-0.897-0.048c0.734-1.542-0.157-3.338,0.472-4.981c-0.253-0.677-0.781-1.518-0.708-2.349
				l0.12,0.082l0.177-0.83l-0.358,0.62c-0.116-0.17-0.297-0.296-0.298-0.469c0.307-0.924,0.631-2.13,0.136-3.211
				c-1.052-0.668,0.875-0.515,0.102-1.165c0.096,0.055,0.242,0.07,0.344,0.118c-0.375-0.721-0.57-1.113-1.203-1.836
				c1.007,0.056-0.043-0.481,0.492-0.43l-0.412-0.051c0.246-0.172,0.326-0.561,0.621-0.512l-0.518-0.316l0.419-0.037
				c0.022-0.432-0.344-1.359,0.501-1.595c-0.677-1.061-0.461-2.765-0.303-4.106c-0.342-0.194-0.375-0.589-0.404-0.898l0.509-0.318
				c-0.146-0.315-0.768-0.665-0.44-0.949l0.128,0.038c-0.095-0.322,0.178-0.616-0.276-0.928c0.034-0.349,0.308-0.678,0.771-0.555
				c-0.83-0.064,0.137-0.732,0.137-0.732s0.651-4.439,1.023-9.452c0.355-5.016,0.448-10.647-1.468-13.172
				c-0.384-0.205-0.593-0.654-1.097-0.565c-0.11-0.34,0.628-0.383,0.23-0.503c-0.329,0.394-1.034-0.286-1.597,0.066l-0.062-0.287
				c-0.282-0.097,0.278,0.418-0.238,0.276l0.749,0.185c-0.145,0.204-0.32,0.303-0.589,0.344c0.269,0.25,1.281,0.525,0.765,0.957
				l-0.028-0.143c-0.026,0.406-0.524,0.179-0.66,0.246l0.018-0.089l-0.429,0.288c0.291-0.223-0.269-0.734-0.255-0.505
				c-0.278,0.453,0.202-0.099,0.246,0.275c0.009,0.23-0.388,0.111-0.623,0.069l-0.026,0.408c-0.352-0.062,0.056-0.265-0.332-0.151
				l0.306,0.559c-0.908-0.024,0.355,0.611-0.519,0.732c-0.161-0.394-0.306-0.007-0.587-0.103l-0.062,0.907
				c-0.135,0.069-0.247-0.272-0.219-0.129c-0.268,0.138,0.184,0.306,0.167,0.397c-0.255,0.047-0.071,0.674-0.661,0.576
				c-0.471,0.564,0.722,0.35,0.315,0.879c-0.37,0.031-0.031-0.464-0.435-0.255l0.062,0.608c-0.169-0.074-0.571-0.185-0.466-0.398
				c-0.676,1.542-2.659,2.207-2.33,3.742c-0.452,0.164-0.272-0.18-0.541-0.359c0.465,1.134-1.109,1.414-1.134,2.344l0.354,0.051
				c-1.207,1.182-0.704,2.788-1.257,4.21l0.261-0.155c0.33,0.227,0.344,0.553,0.488,0.804c-0.182,0.023-0.748-0.23-0.63,0.205
				c0.132-0.078,0.278-0.247,0.448-0.181c-0.504,0.592-0.746,1.555-0.929,2.626c-0.165,1.074-0.275,2.253-0.547,3.28
				c0.074,1.408-0.047,2.87-0.201,4.328c-0.133,1.459-0.24,2.92-0.136,4.306c-0.029-0.423,0.851-0.243,0.649,0.074
				c-1.477,0.879,0.284,1.506-0.713,2.409c0.502,1.602-0.707,3.099,0.512,4.562l-0.419,0.048c-0.181,0.234,0.114,0.282,0.168,0.516
				l-0.118,0c-0.136,0.568,0.341,1.222,0.168,1.554l0.475-0.007c0.065,0.329-0.353,0.194-0.056,0.518l-0.238,0.005l0.48,0.368
				c-0.832,0.017,0.007,0.94-0.347,1.232c0.184,0.42,0.597,1.204,0.51,1.868c-0.412,0.158-0.322,0.957-0.481,1.488
				c0.207,0.985,0.504,2.386,0.546,3.667l0.532-0.089l0.081,0.324c-0.118,0.01-0.174,0.062-0.237,0.019
				c-0.571,0.333,0.292,0.735-0.046,1.049c0.46-0.231,0.043-0.24,0.03-0.43c0.216-0.303,0.768-0.112,0.554,0.285l-0.118,0.008
				l0.315,0.21c-0.413,0.084-0.575,0.336-0.983,0.422c0.249,1.076,1.116,1.701,1.105,2.844c-0.482-0.04,0.256,0.781-0.585,0.69
				c0.42,0.621,0.631-0.218,1.251-0.007c0.019,0.188,0.274,0.346-0.017,0.43c-0.208-0.055-0.462,0.235-0.562,0.096l0.14,0.436
				l-0.244-0.066c0.639,0.825-0.192,1.708,0.442,2.437c0.301,0.005,0.014-0.339,0.316-0.335c0.756,0.703-0.368,0.825,0.205,1.507
				l-0.43-0.077c0.326,0.192,0.689,0.228,0.455,0.7c-0.457,0.17-0.456-0.265-0.716-0.417c0.032,0.285,0.321,0.965,0.697,0.66
				c0.235,0.3-0.153,0.509-0.236,0.717c0.116-0.019,0.236-0.378,0.501-0.23c-0.153,0.509,0.029,1.207,0.125,1.77
				c-0.116,0.022-0.281,0.101-0.35,0.066c0.715,0.305-0.334,0.5-0.052,1.085c0.276,0.802,0.772,1.689,1.18,2.584
				c0.426,0.892,0.772,1.799,0.967,2.617c0.72,0.168,0.906,0.664,1.208,1.128l-0.781,0.302l0.396,0.344
				c-0.183,0.249-0.257-0.279-0.458,0.121l0.549,0.004c-0.275,0.123,0.175,1.15-0.635,0.621c0.179,0.553,0.363,1.106,0.575,1.649
				c0.113,0.37,0.739-0.014,0.694,0.451c-0.2,0.161-0.212-0.089-0.483,0.042c-0.131,1.411,2.047,0.842,2.108,2.073l-0.14-0.055
				c0.277,0.112,0.391,0.477,0.508,0.438c0.728-0.436-0.51-0.035-0.171-0.547c0.676-0.218,0.515,0.285,1.014,0.073
				c-0.133,0.343,0.307,0.349,0.44,0.553c-0.256,0.535,0.268,0.958-0.128,1.447c0.286,0.102,1.019,0.047,1.212,0.429
				c-0.393,0.492-0.519,0.133-0.547,0.598l0.407-0.095c0.076,0.339-0.052,0.335-0.235,0.398c0.131,0.345,0.634,0.065,0.583,0.586
				l-0.474-0.078c0.284,0.251,0.284,0.402,0.454,0.847c-0.221,0.084-0.289-0.095-0.286-0.249c-0.448,0.475,0.432,0.297,0.431,0.448
				c0.147-0.108,0.081-0.437,0.521-0.453c0.032,0.242,0.724,0.227,0.352,0.574l-0.472-0.072c0.503,0.315,0.581,0.029,0.677,0.601
				c-0.041-0.015-0.128,0.04-0.212,0.064c0.632,0.106,0.396,0.721,0.588,1.213l-0.143-0.044c0.218,0.134,0.6,0.083,0.623,0.199
				c0.086-0.37,0.23-0.347,0.576-0.538c-0.445,0.644,0.962,0.209,0.902,0.942c-0.215,0.093-0.545,0.079-0.403-0.184
				c-0.73,0.105-1.279,0.335-1.742,0.115c0.248,0.155,0.468,0.372,0.177,0.442l0.62-0.209c0.085,0.124,0.104,0.245,0.157,0.344
				c0.398-0.122,0.464-0.554,0.865-0.368c0.369,0.249-0.501,0.47-0.211,0.396c0.48,0.357,0.727-0.111,0.773,0.434
				c-0.072-0.021-0.218-0.059-0.184-0.125c-0.063,0.439,0.524,0.741-0.122,1.187c-0.181,0.03-0.395,0.126-0.4-0.028l0.109-0.048
				c-0.694-0.106,0.295,0.231-0.39,0.434c0.36-0.213,0.518,0.289,0.559,0.531l0.39-0.284c1.628,0.032-0.858,0.395-0.333,0.993
				c0.514,0.284,0.031-0.225,0.468-0.115c0.078,0.332-0.223,0.632,0.202,0.956c-0.098,0.206-0.182,0.566-0.638,0.841
				c0.34,0.153,0.25,0.898,0.789,0.791c0.135-0.654-0.746-0.169-0.438-1.014l0.54-0.105c0.183,0.366,0.676,0.69,0.654,1.024
				c0.06-0.099,0.164-0.186,0.279-0.21c0.465,0.405,1,0.288,1.147,0.85c-0.374,0.303-0.47-0.023-0.628-0.209
				c-0.146,0.503,0.166,0.343,0.321,0.905c-0.347,0.238-0.172-0.34-0.558-0.191c0.145,0.158,0.285,0.319,0.44,0.47l-0.073,0.043
				c0.649-0.277,0.208,0.433,0.596,0.649c0.492,0.767,1.364,0.394,2.106,0.515c-0.087,0.211-0.215,0.339-0.394,0.384
				c0.141-0.349-0.043-0.187-0.239-0.156c0.226,0.216-0.214,0.923-0.544,0.929c0.436,0.302,0.214-0.342,0.56-0.209l0.324,0.582
				c0.257-0.259,0.195-0.495,0.611-0.355c0.236,0.19,0.256,0.343,0.458,0.661c-0.178,0.051-0.382,0.393-0.529,0.15
				c-0.005,0.222,0.148,0.466,0.501,0.365c0.029-0.514,0.65,0.382,0.929-0.176l-0.029,0.514c-0.049-0.08-0.251,0.043-0.274-0.108
				c-0.379,0.396,0.324,0.189,0.45,0.276c-0.002,0.176,0.179,0.51,0.026,0.653c0.199,0.021,0.288,0.348,0.098,0.554
				c0.201,0.098,0.298-0.189,0.473-0.243l0.347,0.562c-0.223,0.202-0.865,0.727-1.015,0.71c0.373,0.045,0.769-0.437,0.968-0.113
				c-0.602,0.163-0.049,0.657-0.803,0.809c-0.208,0.421,0.2,0.908,0.538,1.089c0.501-0.105-0.025-0.449,0.368-0.71
				c0.739,0.66,1.806-0.078,2.06,0.607l-0.008-0.222c0.481,0.18,0.405,0.177,0.875,0.131c-0.53,0.257-0.936,1.359-0.364,1.834
				c0.268-0.138,0.169-0.652,0.608-0.851l0.382,0.303c-0.014,0.055-0.123,0.077-0.222,0.077c0.441,0.19-0.061,1.077,0.548,0.738
				l-0.368,0.871l0.166-0.363c0.261-0.138,0.644,0.167,0.795,0.169c0.567,0.161,0.493,0.454,0.39,0.898
				c0.125-0.221,0.4-0.734,0.72-0.506c-0.716,0.614,0.268,0.834-0.106,1.148c0.112,0.109,0.091,0.5,0.394,0.254l-0.456,0.371
				c0.637-0.518,1.004-0.086,1.415,0.126c-0.887,0.681,0.396,0.283-0.21,1.111c0.61-0.456,0.76,0.353,1.279-0.034
				c0.259,0.214-0.27,0.677-0.383,0.905l0.312-0.083c-0.136,0.368,0.267,0.862,0.383,1.284l0.728-0.231l-0.117,0.303
				c0.161-0.082,0.444,0.045,0.485-0.253l0.111,0.156c0.521-0.509,0.335,0.037,0.828,0.071c-0.017,0.143-0.154,0.253-0.282,0.267
				c0.134,0.133-0.184,0.346-0.276,0.592c0.033-0.223,1.398-0.483,1.253-1.063c0.179-0.237,0.543-0.197,0.587,0.021l-0.366,0.55
				l0.632-0.353c0.275,0.123,0.08,0.511,0.201,0.723c-0.2-0.129-1.245,0.561-0.774,0.971c-0.298-0.159-0.664-0.002-0.883-0.018
				c0.078,0.107,0.083,0.197-0.255,0.262c0.5,0.185,0.394-0.182,0.807,0.086c-0.41,0.408-0.45,0.651-0.251,1.071l0.044-0.525
				l0.151-0.075c-0.046-0.129-0.009-0.219,0.123-0.402c0.062,0.076,0.913-0.171,0.737,0.143c0.237-0.983,1.119,0.013,1.245-0.594
				c0.155-0.092,0.433,0.092,0.266,0.335c-0.599,0.077-0.206,0.692-0.522,0.959c0.226-0.032,0.041-0.528,0.342-0.566
				c0.21,0.122,0.109,0.506,0.093,0.731l-0.149,0.019l0.117,0.436c0.235-0.183,0.044-0.604,0.406-0.503
				c-0.01,0.15,0.351,0.252,0.193,0.423c-0.384,0.202-0.636,0.685-0.928,0.573c0.217,0.125,0.86,0.568,0.968-0.052l0.211,0.199
				c0.016-0.306-0.088-0.967,0.407-0.662l-0.079,0.087l0.589-0.087l-0.057,0.344c0.09-0.118,0.224-0.183,0.332-0.082
				c-0.082,0.163-0.012,0.298-0.169,0.473c0.367,0.233,0.523-0.019,0.674-0.119c0.219,0.109,0.216,0.259-0.088,0.462
				c0.218,0.257,0.73,0.539,0.725,0.917c0.517,0.054,0.001-0.151,0.45-0.312c-0.308,1.036,0.945,1.189,1.607,1.498
				c0.352-0.83,0.225,0.026,0.804-0.564c-0.293,0.143,0.177,0.935-0.497,0.795l0.378,0.135c-0.056,0.545-0.749-0.05-0.797,0.717
				c0.387,0.218,1.179-0.43,1.424,0.119c-0.497,0.428,0.448,0.042-0.045,0.547c-0.217,0.13-0.299-0.005-0.45-0.044l0.007,0.151
				c0.709,0.676,0.648-0.465,1.307-0.553c0.529,0.247,0.113,0.664-0.021,0.93c0.01,0.152,0.311,0.23,0.529,0.175
				c-0.509,0.129-0.338-0.689,0.016-0.933c-0.176,0.741,0.692,0.516,0.972,0.361C136.024,396.48,135.845,397.223,135.646,396.124z"
				/>
			<path style="fill:#AEDF8F;" d="M97.7,377.162l-0.099-0.218c-0.081,0.067-0.181,0.137-0.342,0.131L97.7,377.162z"/>
			<path style="fill:#AEDF8F;" d="M89.078,366.653c0.189,0.106,0.206-0.104,0.26-0.246C89.255,366.454,89.16,366.518,89.078,366.653
				z"/>
			<path style="fill:#AEDF8F;" d="M102.865,380.812c-0.061,0.003-0.123,0.029-0.19,0.102
				C102.774,380.894,102.829,380.858,102.865,380.812z"/>
			<path style="fill:#AEDF8F;" d="M115.537,390.654c-0.037-0.027-0.097-0.047-0.199-0.051L115.537,390.654z"/>
			<path style="fill:#AEDF8F;" d="M99.658,377.933c0.074,0.065,0.156,0.057,0.233,0.034
				C99.837,377.93,99.769,377.908,99.658,377.933z"/>
			<polygon style="fill:#AEDF8F;" points="115.114,390.58 114.944,390.408 114.887,390.48 			"/>
			<path style="fill:#AEDF8F;" d="M115.911,391.785c0.028,0.172,0.106,0.226,0.22,0.215
				C116.062,391.935,115.956,391.865,115.911,391.785z"/>
			<path style="fill:#AEDF8F;" d="M107.839,384.603l-0.027-0.008C107.534,384.629,107.681,384.638,107.839,384.603z"/>
			<polygon style="fill:#AEDF8F;" points="113.772,390.658 113.756,390.626 113.621,390.692 			"/>
			<polygon style="fill:#AEDF8F;" points="116.903,392.719 116.752,392.729 116.841,392.844 			"/>
			<path style="fill:#AEDF8F;" d="M110.112,387.414c0.163-0.092,0.258-0.168,0.317-0.236
				C110.364,387.133,110.274,387.162,110.112,387.414z"/>
		</g>
		<g>
			<path style="fill:#9ED979;" d="M377.175,384.957c-6.249,7.329-14.504,11.232-23.305,13.596
				c-5.859,1.567-11.959,2.457-17.867,3.212c-54.307,6.951-110.305,11.702-162.717-6.075c-17.855-6.061-36.025-15.576-46.362-33.381
				c-9.401-16.174-10.881-36.65-10.956-56.101c-0.155-40.447,4.701-81.548,19.452-118.256c4.868-12.122,10.863-23.66,17.904-34.279
				c26.897-40.532,72.62-64.662,116.919-64.776c21.236-0.064,42.906,7.257,59.039,23.147c13.773,13.575,22.58,32.178,29.157,51.856
				c2.421,7.229,4.54,14.615,6.497,21.943c10.15,38.075,17.285,77.204,21.354,116.746c0.824,8.012,1.523,16.046,2.099,24.087
				c0.186,2.628,0.347,5.299,0.458,7.984C389.604,352.95,388.087,372.165,377.175,384.957z"/>
			<path style="fill:#8AC76E;" d="M386.291,302.589c-7.574,3.732-15.916,5.79-24.68,5.79c-34.712,0-62.854-32.363-62.854-72.29
				c0-38.695,26.444-70.288,59.683-72.19c2.421,7.229,4.54,14.615,6.497,21.943C375.087,223.918,382.222,263.047,386.291,302.589z"
				/>
			<ellipse style="fill:#8AC76E;" cx="299.477" cy="330.298" rx="19.061" ry="21.921"/>
			<path style="fill:#8AC76E;" d="M377.175,384.957c-6.249,7.329-14.504,11.232-23.305,13.596
				c-6.955-7.008-11.346-17.292-11.346-28.759c0-21.103,14.876-38.21,33.226-38.21c4.651,0,9.079,1.097,13.099,3.077
				C389.604,352.95,388.087,372.165,377.175,384.957z"/>
			<ellipse style="fill:#8AC76E;" cx="154.005" cy="318.364" rx="19.061" ry="21.921"/>
			<ellipse style="fill:#8AC76E;" cx="196.106" cy="228.099" rx="37.051" ry="39.147"/>
		</g>
	</g>
	<g>
		<path d="M253.897,120.706c-0.142,0.347-0.293,0.689-0.447,1.03c1.422,0.919,2.642,2.258,3.732,3.53
			c1.184,1.381,2.268,2.846,3.36,4.301c0.329,0.439,0.653,0.882,0.981,1.322c1.064-0.356,2.098-0.838,3.099-1.344
			c0.991-0.501,1.99-1.072,2.863-1.76c0.373-0.294,0.666-0.626,0.753-1.106c0.08-0.441,0.04-0.914,0.014-1.358
			c-0.059-0.995-0.219-1.982-0.462-2.949c-0.491-1.954-1.292-3.815-2.239-5.588c-1.902-3.559-4.389-6.758-6.405-10.246
			c-0.308,0.563-0.618,1.125-0.919,1.692c-0.49,0.921-0.965,1.85-1.414,2.792c-0.224,0.47-0.441,0.943-0.667,1.412
			c-0.18,0.373-0.388,0.723-0.587,1.081c0,0.006,0.001,0.012,0.001,0.018c0.018,0.799-0.125,1.629-0.261,2.414
			C255.018,117.579,254.524,119.172,253.897,120.706z"/>
		<path d="M244.829,88.115c-0.398,0.629-0.796,1.257-1.195,1.884c-0.813,1.278-1.622,2.558-2.442,3.831
			c-0.417,0.647-0.823,1.304-1.253,1.943c-0.399,0.594-0.849,1.15-1.282,1.719c0.648,0.389,1.264,0.869,1.859,1.307
			c0.771,0.566,1.528,1.148,2.275,1.745c1.507,1.202,2.959,2.471,4.38,3.773c2.506,2.296,4.91,4.7,7.307,7.108
			c0.309,0.311,0.58,0.624,0.774,0.975c0.052-0.17,0.109-0.341,0.177-0.511c0.216-0.545,0.448-1.084,0.69-1.618
			c0.473-1.043,0.975-2.072,1.492-3.093c1.861-3.672,3.966-7.222,5.609-11.002c0.818-1.882,1.51-3.824,2.01-5.816
			c0.024-0.094,0.041-0.19,0.064-0.285c0.392-0.803,0.709-1.644,0.93-2.553c0.412-1.699,0.596-3.418,0.471-5.158
			c0.003-0.104,0.018-0.207,0.02-0.311c0.032-1.551-0.089-3.111-0.379-4.636c-0.539-2.83-1.685-5.464-2.841-8.086
			c-0.581-1.318-1.201-2.62-1.947-3.854c-0.745-1.23-1.591-2.394-2.459-3.54c-1.832-2.417-3.693-4.813-5.541-7.218
			c-0.904-1.177-1.804-2.357-2.726-3.52c-0.904-1.138-1.926-2.207-2.76-3.395c-0.563,0.093-1.126,0.284-1.653,0.493
			c-1.046,0.417-2.028,1.033-2.875,1.773c-1.478,1.293-2.456,2.887-3.163,4.657c0.038,0.051,0.075,0.104,0.098,0.174
			c1.022,3.153,1.838,6.369,2.533,9.609c1.243,5.787,2.111,11.65,2.954,17.506c0.196,1.367,0.599,2.885,0.01,4.204
			C245.667,86.889,245.219,87.498,244.829,88.115z"/>
		<path d="M187.698,92.974c-0.728,1.38-1.352,2.812-1.863,4.287c-0.501,1.446-0.845,2.917-1.179,4.408
			c-0.114,0.508-0.241,1.02-0.403,1.518c2.715-1.059,5.929-0.295,8.544-1.752c1.327-0.739,1.973-2.026,2.648-3.327
			c0.733-1.413,1.423-2.846,2.142-4.266c1.371-2.706,2.888-5.364,4.93-7.627c1.865-2.067,4.153-3.836,6.827-4.699
			c2.993-0.967,6.171-0.664,9.242-0.29c0.1-0.664-0.378-1.323-0.857-1.754c-0.644-0.58-1.43-1.032-2.202-1.419
			c-1.613-0.811-3.4-1.258-5.203-1.33c-0.076-0.003-0.137-0.026-0.199-0.048c-3.272,0.571-6.432,1.611-9.371,3.174
			C195.195,82.804,190.634,87.408,187.698,92.974z"/>
		<path d="M192.479,66.964c-1.344-0.297-2.734-0.3-4.07,0.048c-1.364,0.355-2.629,0.992-3.882,1.624
			c-3.773,1.902-7.626,4.203-10.279,7.56c-1.039,2.228-2.261,4.365-3.12,6.675c-1.553,4.177-2.144,9-0.141,13.138
			c0.96,1.983,2.366,3.702,3.813,5.346c0.767,0.871,1.557,1.722,2.372,2.548c0.426,0.431,0.858,0.856,1.296,1.273
			c0.437,0.416,0.933,0.782,1.212,1.325c0.016,0.031,0.023,0.065,0.032,0.098c0.054-0.045,0.108-0.09,0.162-0.135
			c0.315-0.26,0.703-0.409,1.064-0.596c0.74-0.382,1.356-0.842,1.794-1.563c0.834-1.372,1.013-3.048,1.383-4.581
			c1.476-6.123,4.693-11.786,9.294-16.102c3.823-3.585,8.616-6.229,13.701-7.598c-2.702-1.36-4.979-3.379-7.363-5.212
			C197.568,69.137,195.205,67.565,192.479,66.964z"/>
		<path d="M195.805,122.767c0.151,0.188,0.299,0.377,0.443,0.564c0.494,0.639,0.939,1.322,1.339,2.023
			c0.189,0.331,0.373,0.666,0.536,1.01c0.006,0.013,0.012,0.026,0.018,0.039c0.164,0.031,0.252,0.236,0.178,0.393
			c0.014,0.03,0.027,0.059,0.041,0.089c0.041,0.089,0.082,0.269,0.165,0.325c0.165,0.112,0.504-0.006,0.678-0.044
			c0.307-0.067,0.613-0.143,0.916-0.227c1.243-0.346,2.437-0.83,3.567-1.452c1.129-0.622,2.187-1.366,3.145-2.23
			c0.483-0.436,0.935-0.902,1.395-1.361c0.161-0.161,0.326-0.364,0.502-0.56c-1.591,0.439-3.208,0.799-4.834,0.963
			c-1.196,0.121-2.397,0.051-3.549-0.31c-1.024-0.321-1.892-0.947-2.64-1.707c-0.24-0.244,0.113-0.572,0.368-0.367
			c0.792,0.638,1.827,0.91,2.815,1.084c1.077,0.19,2.238,0.137,3.317-0.006c2.354-0.314,4.699-0.997,6.956-1.72
			c0.006-0.002,0.01,0,0.016-0.002c0.154-0.169,0.304-0.342,0.46-0.51c1.708-1.843,3.519-3.603,5.491-5.164
			c1.785-1.413,3.691-2.57,5.686-3.632c-0.021-0.055-0.034-0.116-0.033-0.185c0.01-0.56,0.285-1.039,0.462-1.563
			c0.175-0.519,0.314-1.05,0.417-1.587c0.196-1.02,0.242-2.066,0.165-3.101c-0.148-1.996-0.887-3.821-1.871-5.542
			c-1.022-1.786-2.162-3.504-3.332-5.196c-1.202-1.739-2.464-3.439-3.747-5.119c-0.641-0.84-1.292-1.673-1.931-2.515
			c-0.334-0.44-0.665-0.881-0.996-1.324c-0.149-0.2-0.308-0.397-0.445-0.606c-0.138-0.209-0.23-0.439-0.362-0.654
			c-0.037-0.06-0.044-0.119-0.031-0.172c-0.872,0.161-1.731,0.41-2.571,0.779c-5.502,2.414-8.403,8.022-10.986,13.104
			c-0.693,1.364-1.315,2.799-2.144,4.087c-0.776,1.206-1.865,2.015-3.215,2.483c-2.682,0.932-5.609,0.468-8.316,1.292
			c-0.213,0.457-0.473,0.89-0.803,1.282c-0.47,0.558-1.075,0.948-1.73,1.254c-0.368,0.172-0.763,0.311-1.14,0.478
			c0.188,0.149,0.365,0.317,0.529,0.448c0.388,0.31,0.774,0.622,1.165,0.928c0.803,0.631,1.639,1.203,2.488,1.769
			c0.212,0.141,0.37,0.42,0.277,0.681c-0.488,1.374-0.093,3.027,1.075,3.945c0.676,0.532,1.518,0.744,2.343,0.678
			c0.059,0.04,0.119,0.08,0.175,0.109c0.308,0.158,0.625,0.272,0.966,0.328c0.288,0.047,0.586,0.068,0.882,0.066
			c0.128,0.046,0.25,0.106,0.378,0.146c0.204,0.064,0.415,0.097,0.623,0.145c0.567,0.736,1.166,1.45,1.785,2.137
			c0.515,0.572,1.055,1.125,1.611,1.658c0.535,0.513,1.179,0.96,1.67,1.513C196.525,122.112,196.241,122.709,195.805,122.767z"/>
		<path d="M78.327,107.18c-0.346-1.047-0.613-2.12-0.8-3.206c-0.371-2.152-0.412-4.382-0.121-6.547
			c0.005-0.039-0.005-0.069-0.005-0.106l147.082-51.747c0.06,0.461,0.065,0.906,0.462,1.228c0.384,0.313,0.87,0.504,1.29,0.765
			c0.969,0.6,1.834,1.356,2.678,2.118c0.83,0.749,1.649,1.523,2.578,2.151c0.917,0.62,1.923,1.04,2.966,1.398
			c1.027,0.353,2.06,0.693,3.056,1.129c0.48,0.21,0.94,0.474,1.369,0.775c0.124,0.087,0.239,0.177,0.349,0.27
			c0.13-1.079,0.501-2.12,1.011-3.079c1.031-1.937,2.682-3.565,4.606-4.615c1.011-0.551,2.154-1.009,3.304-1.144
			c0.61-0.072,1.233,0.035,1.732,0.399c-0.036-0.465-0.087-0.927-0.17-1.387c-0.848-4.729-3.774-8.731-6.579-12.501
			c-0.542-0.728-1.286-1.962-2.304-2.026c-0.515-0.032-0.917,0.407-1.307,0.681c-0.486,0.342-1.04,0.494-1.63,0.518
			c-1.01,0.041-2.006-0.241-2.937,0.282c-0.707,0.397-1.253,1.028-1.778,1.633c-0.54,0.624-1.065,1.275-1.709,1.796
			c-0.715,0.578-1.477,0.908-2.394,0.998c-0.518,0.051-1.026,0.069-1.372,0.51c-0.301,0.384-0.468,0.863-0.723,1.276
			c-0.501,0.81-1.293,1.275-2.091,1.747c-0.736,0.435-1.528,0.951-1.441,1.92c0.038,0.423,0.181,0.821,0.349,1.213
			C204.316,50.587,87.055,92.537,76.715,96.236c-1.514-0.344-3.069,0.445-4.08,1.575c-1.223,1.368-1.825,3.171-2.268,4.919
			c-0.929,3.667-0.997,7.538-0.224,11.239c0.193,0.923,0.439,1.834,0.74,2.727c0.276,0.82,0.564,1.679,1.127,2.352
			c1.096,1.308,2.878,1.208,4.283,0.5c1.513-0.762,2.68-2.227,3.296-3.783c0.71-1.795,0.4-3.742-0.176-5.526
			C79.079,109.21,78.666,108.207,78.327,107.18z"/>
		<path d="M285.167,172.796c-0.909-1.988-1.857-3.958-2.844-5.909c-0.984-1.947-2.087-3.837-2.902-5.862
			c-0.055-0.136-0.044-0.251,0.007-0.341c-0.347-0.634-0.693-1.268-1.042-1.9c-0.889-1.609-1.806-3.201-2.749-4.779
			c-3.392-5.677-7.065-11.188-10.906-16.569c-1.923-2.693-3.888-5.355-5.88-7.997c-0.934-1.239-1.873-2.475-2.901-3.638
			c-0.513-0.58-1.047-1.142-1.611-1.672c-0.462-0.435-0.956-0.829-1.443-1.231c-1.155,2.304-2.557,4.479-4.004,6.612
			c-0.966,1.425-1.945,2.842-2.905,4.272c-0.956,1.425-1.796,2.941-2.813,4.321c-0.155,0.21-0.534,0.095-0.447-0.189
			c0.542-1.77,1.591-3.404,2.553-4.973c0.976-1.592,2.033-3.133,3.049-4.7c1.761-2.715,3.452-5.503,4.601-8.54
			c0.568-1.502,1.01-3.065,1.227-4.659c0.091-0.666,0.33-1.607-0.1-2.193c-0.462-0.63-1.122-1.162-1.673-1.713
			c-2.352-2.35-4.723-4.683-7.206-6.895c-1.238-1.103-2.504-2.175-3.803-3.206c-0.645-0.512-1.301-1.01-1.966-1.495
			c-0.48-0.35-0.99-0.683-1.469-1.047c-0.15,0.236-0.309,0.468-0.469,0.698c0.079,0.028,0.156,0.072,0.225,0.143
			c0.23,0.236,0.244,0.644,0,0.877c-1.179,1.127-2.465,2.156-3.699,3.223c-1.188,1.027-2.368,2.064-3.574,3.07
			c-1.013,0.844-2.05,1.663-3.144,2.399c-1.135,0.764-2.342,1.391-3.559,2.012c-2.272,1.159-4.41,2.521-6.403,4.115
			c-1.922,1.537-3.683,3.234-5.394,4.983c-0.038,0.209-0.164,0.403-0.423,0.486c-0.024,0.008-0.048,0.015-0.072,0.023
			c-0.413,0.427-0.821,0.859-1.231,1.29c-0.436,0.589-0.84,1.201-1.224,1.827c-0.691,1.126-1.276,2.315-1.729,3.557
			c-0.456,1.248-0.797,2.534-0.99,3.849c-0.098,0.664-0.149,1.337-0.192,2.007c-0.022,0.342-0.046,0.685-0.071,1.027
			c-0.025,0.334-0.009,0.686-0.138,1c-0.119,0.29-0.519,0.402-0.701,0.091c-0.304-0.52-0.296-1.272-0.313-1.862
			c-0.018-0.619,0.036-1.242,0.116-1.855c0.275-2.124,0.892-4.178,1.84-6.097c-0.074,0.076-0.146,0.153-0.22,0.229
			c-0.15,0.152-0.405,0.011-0.41-0.164c-1.961,1.412-4.196,2.449-6.56,2.963c-0.672,0.146-1.438,0.264-1.975-0.276
			c-0.129-0.13-0.222-0.285-0.304-0.447c-0.086,0.063-0.172,0.126-0.256,0.188c-0.216,0.161-0.435,0.317-0.655,0.472
			c-0.151,0.107-0.434,0.229-0.536,0.386c-0.164,0.251,0.277,0.819,0.401,1.047c0.24,0.442,0.477,0.885,0.724,1.323
			c0.247,0.438,0.502,0.872,0.763,1.301c0.187,0.307,0.32,0.651,0.723,0.652c0.396,0.001,0.804-0.159,1.181-0.262
			c0.497-0.135,1.004-0.32,1.513-0.397c0.277-0.042,0.555,0.024,0.706,0.287c0.059,0.102,0.085,0.198,0.085,0.316
			c0.003,0.297-0.201,0.5-0.459,0.603c-0.594,0.238-1.264,0.359-1.883,0.527c-0.211,0.057-0.429,0.11-0.649,0.149
			c-0.045,1.362,0.157,2.781,0.65,4.038c0.268,0.681,0.64,1.316,0.865,2.014c0.246,0.762,0.262,1.564,0.257,2.358
			c-0.032,5.262,2.079,10.081,4.702,14.543c1.352,2.299,2.825,4.524,4.216,6.8c0.701,1.147,1.378,2.308,2.006,3.496
			c0.555,1.051,1.116,2.193,1.341,3.375c0.109,0.207,0.222,0.411,0.329,0.62c0.767,1.495,1.496,3.01,2.223,4.525
			c1.263,2.632,2.557,5.216,4.068,7.717c1.472,2.438,2.972,4.859,4.418,7.314c1.454,2.469,2.859,4.97,4.139,7.535
			c0.634,1.271,1.225,2.561,1.801,3.859c0.38,0.857,0.847,1.97,1.804,2.312c0.458,0.163,0.521,0.66,0.341,0.984
			c0.119,0.454,0.223,0.909,0.313,1.377c0.523,2.723,0.768,5.521,0.913,8.287c0.073,1.394,0.038,2.788,0.092,4.181
			c0.021,0.541,0.165,0.991,0.599,1.336c0.44,0.35,0.997,0.571,1.504,0.804c4.646,2.134,9.713,3.263,14.766,3.9
			c5.228,0.659,10.507,0.848,15.768,1.06c5.324,0.214,10.698,0.545,16.02,0.144c2.556-0.193,5.1-0.587,7.563-1.311
			c1.188-0.349,2.381-0.755,3.493-1.304c0.942-0.465,1.815-1.06,2.271-2.038c0.086-0.185,0.278-0.278,0.478-0.299
			c0.74-1.478,1.324-3.02,1.61-4.668c0.424-2.437,0.081-4.913-0.385-7.317c-1.656-8.533-4.082-16.962-7.065-25.122
			C288.602,180.718,286.962,176.722,285.167,172.796z"/>
		<path d="M295.537,224.195c-0.88,0.798-1.971,1.285-3.062,1.721c-1.226,0.49-2.488,0.886-3.77,1.201
			c-2.582,0.635-5.24,0.947-7.892,1.084c-2.697,0.139-5.4,0.094-8.098,0.012c-2.898-0.088-5.795-0.2-8.692-0.324
			c-5.398-0.231-10.809-0.481-16.153-1.319c-2.626-0.412-5.232-0.973-7.774-1.757c-1.256-0.387-2.495-0.829-3.708-1.333
			c-1.105-0.458-2.383-0.893-3.29-1.702c-0.087,0.281-0.163,0.565-0.259,0.846c-0.417,1.216-0.733,2.465-0.954,3.731
			c-0.073,0.42-0.323,1.167-0.031,1.548c0.25,0.326,0.814,0.387,1.186,0.457c2.727,0.511,5.456,1.007,8.182,1.518
			c2.749,0.515,5.497,1.031,8.246,1.545c2.677,0.5,5.359,0.991,8.067,1.294c5.448,0.609,10.957,0.518,16.408-0.007
			c5.233-0.504,10.572-1.236,15.591-2.854c1.214-0.391,2.413-0.838,3.574-1.366c0.976-0.443,2.123-0.917,2.783-1.806
			c0.36-0.485,0.512-1.075,0.627-1.658c0.127-0.648,0.226-1.302,0.337-1.953l0.19-1.12c-0.144,0.266-0.294,0.529-0.46,0.778
			c-0.01,0.032-0.013,0.066-0.028,0.097C296.315,223.346,295.959,223.811,295.537,224.195z"/>
		<path d="M309.674,277.362c-0.111-2.333-0.225-4.665-0.338-6.998c-0.079-1.627-0.136-3.261-0.286-4.885
			c-0.072,0.028-0.146,0.047-0.219,0.047c-0.37,0-0.607-0.296-0.641-0.641c-0.329-3.359-0.644-6.719-0.987-10.076
			c-0.14-1.368-0.389-2.652-1.02-3.884c-0.321-0.627-0.563-1.245-0.658-1.946c-0.095-0.699-0.092-1.406-0.158-2.108
			c-0.269-2.845-1.37-5.545-2.411-8.178c-1.097-2.776-2.262-5.522-3.431-8.268c-0.27-0.633-0.52-1.267-0.611-1.953
			c-0.091-0.692,0.025-1.384-0.027-2.077c-0.063-0.849-0.417-1.66-0.917-2.355c-0.091,0.536-0.188,1.071-0.307,1.599
			c-0.286,1.259-0.951,2.217-2.015,2.941c-1.058,0.72-2.298,1.213-3.48,1.687c-1.236,0.496-2.503,0.914-3.784,1.274
			c-2.599,0.731-5.258,1.224-7.925,1.63c-2.869,0.437-5.753,0.784-8.647,1c-5.737,0.427-11.488,0.295-17.18-0.563
			c-2.84-0.428-5.66-0.985-8.482-1.514c-2.857-0.536-5.714-1.072-8.571-1.608c-1.415-0.265-2.829-0.535-4.243-0.807
			c-0.69-0.133-1.5-0.269-2.076-0.683c-0.316,0.496-0.487,1.092-0.469,1.674c0.013,0.425,0.112,0.842,0.104,1.268
			c-0.008,0.424-0.093,0.848-0.205,1.255c-0.476,1.733-1.058,3.434-1.507,5.176c-1.586,6.153-2.459,12.508-2.552,18.863
			c-0.021,1.464,0.014,2.942,0.28,4.385c0.132,0.716,0.318,1.423,0.573,2.106c0.246,0.656,0.664,1.27,0.81,1.96
			c0.081,0.383,0.06,0.758-0.036,1.136c-0.087,0.341-0.228,0.658-0.251,1.013c-0.053,0.788,0.218,1.563,0.434,2.309
			c0.23,0.795,0.46,1.59,0.689,2.386c0.198,0.686,0.427,1.371,0.56,2.073c0.137,0.044,0.249,0.161,0.255,0.356
			c0.14,4.728-0.036,9.462-0.128,14.191c-0.083,4.246-0.158,8.493-0.253,12.739c-0.047,2.096-0.094,4.193-0.141,6.289
			c-0.046,2.051-0.028,4.119-0.265,6.159c-0.116,1.002-0.327,1.975-0.538,2.96c-0.198,0.922-0.369,1.896-0.087,2.819
			c0.129,0.424,0.363,0.814,0.441,1.254c0.087,0.486,0.008,0.933-0.214,1.373c-0.21,0.418-0.493,0.793-0.694,1.217
			c-0.181,0.381-0.318,0.782-0.439,1.185c-0.581,1.938-0.927,3.964-1.365,5.938l-1.366,6.153c-0.091,0.409-0.458,0.51-0.767,0.408
			c-0.848,1.145-1.696,2.289-2.534,3.442c-4.44,6.107-8.852,12.224-13.051,18.501c-4.212,6.298-8.26,12.706-12.137,19.216
			c-1.938,3.255-3.834,6.535-5.687,9.84c-1.793,3.199-3.394,6.607-5.786,9.416c-2.113,2.479-4.777,4.594-5.577,7.903
			c-0.379,1.568-0.339,3.195-0.013,4.77c-0.305,0.346-0.595,0.705-0.87,1.075c-0.268,0.362-0.548,0.761-0.764,1.184
			c-0.069,0.071-0.148,0.131-0.214,0.204c-0.094,0.102-0.168,0.224-0.257,0.332c0.145-0.752,0.34-1.5,0.576-2.23
			c-0.758,0.145-1.518,0.282-2.272,0.448c-1.869,0.41-3.738,1.023-5.182,2.332c-0.619,0.562-1.153,1.221-1.493,1.99
			c-0.422,0.956-0.466,2.001-0.367,3.028c0.104,1.075,0.366,2.136,0.597,3.189c0.232,1.06,0.478,2.116,0.713,3.175
			c0.482,2.17,0.972,4.339,1.4,6.521c0.856,4.359,1.419,8.757,1.261,13.207c-0.077,2.18-0.229,4.402,0.266,6.546
			c0.447,1.934,1.33,3.733,2.369,5.414c1.862,3.012,4.354,5.648,7.245,7.693c2.83,2.002,6.171,3.66,9.618,4.223
			c1.683,0.275,3.532,0.197,4.987-0.78c1.372-0.921,2.069-2.59,2.244-4.184c0.22-2.003-0.304-3.974-0.895-5.871
			c-0.632-2.03-1.267-4.045-1.7-6.13c-0.867-4.184-1.151-8.491-0.823-12.752c0.165-2.145,0.478-4.283,0.944-6.384
			c0.303-1.363,1.142-3.501-0.052-4.657c-0.015-0.015-0.019-0.032-0.033-0.048c-0.321,0.049-0.644,0.08-0.966,0.11
			c0.043-0.267,0.08-0.533,0.111-0.797c0.063-0.529,0.08-1.061,0.077-1.594c0.155,0.061,0.311,0.12,0.47,0.169
			c0.472,0.145,1.218,0.338,1.618-0.07c0.259-0.264,0.275-0.695,0.316-1.042c0.05-0.422,0.113-0.84,0.219-1.252
			c0.443-1.722,1.339-3.312,2.192-4.859c1.688-3.058,3.59-5.991,5.606-8.841c4.051-5.73,8.575-11.101,12.962-16.57
			c2.196-2.737,4.36-5.502,6.412-8.349c2.163-3.001,4.118-6.143,6.261-9.157c2.182-3.068,4.668-5.868,7.276-8.578
			c2.552-2.651,5.125-5.277,7.437-8.144c4.441-5.507,8.088-11.702,10.739-18.262c0.075-0.185,0.211-0.33,0.38-0.405
			c0.131-0.328,0.263-0.654,0.391-0.984c0.494-1.278,0.951-2.571,1.373-3.875c0.844-2.611,1.563-5.261,2.289-7.907
			c1.358-4.948,2.633-9.917,3.92-14.884c0.63-2.433,1.269-4.867,1.722-7.341c0.204-1.112,0.318-2.251,0.455-3.386
			c0.585-0.921,1.173-1.84,1.741-2.771c0.263,0.219,0.685,0.222,0.942-0.142c-0.076,1.244-0.146,2.488-0.213,3.731
			c-0.129,2.399-0.238,4.798-0.282,7.2c-0.038,2.133-0.072,4.268,0.007,6.401c0.08,2.141,0.329,4.254,0.629,6.373
			c0.296,2.086,0.586,4.183,0.539,6.295c-0.048,2.123-0.342,4.228-0.124,6.353c0.219,2.148,0.701,4.268,0.99,6.408
			c0.281,2.082,0.492,4.174,0.65,6.269c0.158,2.099,0.265,4.202,0.347,6.306c0.057,1.463,0.118,2.929,0.15,4.394
			c0.058,0.06,0.101,0.139,0.106,0.245c0.038,0.829,0.079,1.657,0.136,2.485c0.233,3.357,0.23,6.738,0.281,10.101
			c0.052,3.367,0.066,6.735,0.064,10.103c-0.002,3.331-0.007,6.666-0.213,9.992c-0.204,3.282-0.742,6.493-1.256,9.735
			c-0.524,3.302-0.667,6.623-0.66,9.963c0.008,3.352,0.064,6.705,0.133,10.057c0.07,3.351,0.179,6.701,0.386,10.046
			c0.082,1.322,0.084,2.715,0.526,3.98c0.175,0.5,0.454,0.984,0.876,1.316c0.513,0.404,1.186,0.525,1.821,0.559
			c0.638,0.034,1.28,0.035,1.923,0.026c0.212,1.254,0.451,2.503,0.713,3.748c-0.092,0.015-0.186,0.03-0.277,0.045
			c-0.076,0.013-0.148,0.01-0.217,0.001c-0.133,0.075-0.262,0.156-0.377,0.25c-1.841,1.497-1.615,4.208-2.704,6.151
			c-0.334,0.595-0.754,1.135-1.204,1.651c-0.053,0.014-0.105,0.038-0.151,0.09c-0.322,0.359-0.668,0.678-0.962,1.059
			c-0.056,0.072-0.113,0.143-0.169,0.215c-0.184,0.185-0.369,0.37-0.554,0.553c-0.078,0.124-0.154,0.249-0.234,0.371
			c0.028-0.009,0.056-0.019,0.084-0.03c-0.036,0.047-0.074,0.091-0.109,0.138c-0.615,0.817-1.22,1.639-1.813,2.472
			c-1.071,1.504-2.147,3.015-3.008,4.653c-0.728,1.386-1.529,3.021-1.385,4.635c0.063,0.706,0.308,1.392,0.835,1.886
			c0.645,0.604,1.533,0.752,2.366,0.922c1.499,0.306,3.027,0.578,4.568,0.794c0.215,0.04,0.43,0.08,0.643,0.12
			c2.601,0.487,5.244,0.85,7.897,0.71c1.174-0.062,2.469-0.156,3.553-0.652c0.159-0.073,0.301-0.167,0.446-0.257
			c1.471-0.295,2.92-0.708,4.332-1.281c1.546-0.627,3.235-1.568,3.366-3.43c0.115-1.616-1.046-2.975-1.334-4.523
			c0.033-1.546,0.016-3.104-0.037-4.644c-0.026-0.752-0.058-1.503-0.092-2.254c0.047-0.059,0.087-0.126,0.115-0.207
			c0.297-0.876,0.464-1.783,0.589-2.696c0.192-0.442,0.398-0.88,0.495-1.354c0.15-0.735,0.02-1.485-0.231-2.183
			c-0.12-0.333-0.266-0.656-0.393-0.986c-0.134-0.349-0.242-0.693-0.496-0.974c-0.005-0.006-0.011-0.008-0.017-0.014
			c0.077-1.132,0.121-2.266,0.146-3.401c0.033-0.164,0.064-0.328,0.097-0.492c-0.029,0-0.058,0.001-0.087,0.001
			c0.006-0.426,0.01-0.852,0.009-1.278l3.104-0.035c0.472-3.574,0.946-7.149,1.426-10.722c0.445-3.319,0.904-6.638,1.299-9.963
			c0.398-3.352,0.632-6.725,0.918-10.088c0.576-6.768,1.152-13.536,1.729-20.304c0.012-0.136,0.064-0.241,0.131-0.332
			c0.117-1.106,0.262-2.209,0.384-3.309c0.22-1.981,0.467-3.959,0.681-5.941c0.772-7.168,1.375-14.353,1.682-21.556
			c0.152-3.568,0.276-7.148,0.061-10.716c-0.212-3.522-0.878-7.052-0.26-10.569c0.024-0.136,0.112-0.238,0.219-0.318
			c0.072-0.775,0.175-1.549,0.274-2.315c0.17-1.315,0.344-2.63,0.521-3.944c0.356-2.645,0.737-5.287,1.133-7.926
			c0.705-4.691,1.462-9.374,2.255-14.052c0.786-4.632,1.595-9.265,2.07-13.942c0.235-2.309,0.391-4.626,0.425-6.947
			C309.887,282.114,309.788,279.737,309.674,277.362z"/>
		<path d="M248.844,39.978c0.172,0.226,0.328,0.458,0.473,0.695c0.064,0.325,0.165,0.641,0.28,0.953
			c0.034,0.171,0.069,0.336,0.099,0.487c0.164,0.804,0.331,1.606,0.461,2.416c0.128,0.801,0.221,1.608,0.322,2.413
			c0.041,0.322,0.081,0.643,0.139,0.962c-0.016,0-0.032,0.007-0.048,0.006c0.069,0.25,0.065,0.509-0.077,0.74
			c-0.014,0.023-0.038,0.032-0.055,0.053c0.089,0.109,0.179,0.218,0.268,0.327c0.526,0.638,1.041,1.284,1.55,1.935
			c1.072,1.369,2.125,2.753,3.184,4.132c1.862,2.423,3.77,4.818,5.569,7.289c0.862,1.183,1.67,2.404,2.353,3.699
			c0.697,1.32,1.283,2.694,1.873,4.064c0.584,1.355,1.167,2.715,1.619,4.121c0.443,1.377,0.728,2.793,0.895,4.229
			c0.169,1.45,0.187,2.916,0.065,4.371c-0.036,0.425-0.086,0.858-0.151,1.29c0.118,0.378,0.139,0.77,0.178,1.17
			c0.042,0.428,0.083,0.856,0.125,1.284c0.089,0.91,0.177,1.819,0.266,2.729l0.461,4.735c0.078,0.802,0.156,1.605,0.231,2.408
			c0.065,0.694,0.235,1.458-0.378,1.957c-0.482,0.394-1.166,0.588-1.727,0.845c-0.667,0.306-1.323,0.634-1.975,0.971
			c-1.064,0.551-2.137,1.106-3.184,1.696c-0.139,0.257-0.277,0.515-0.418,0.771c-0.463,0.845-0.931,1.688-1.396,2.531
			c0.01,0.014,0.023,0.02,0.032,0.036c1.32,2.212,2.758,4.343,4.161,6.502c2.368,3.644,4.568,7.588,5.201,11.951
			c0.053,0.367,0.101,0.746,0.14,1.127c2.022-1.12,3.988-2.297,5.854-3.678c1.789-1.323,3.535-2.709,5.272-4.099
			c1.634-1.307,3.256-2.632,4.804-4.041c1.565-1.425,3.058-2.934,4.401-4.571c0.665-0.81,1.288-1.653,1.863-2.53
			c0.288-0.44,0.565-0.888,0.827-1.343c0.105-0.182,0.2-0.368,0.301-0.549c-0.056-0.063-0.101-0.138-0.115-0.239
			c-0.639-4.385-1.299-8.74-2.407-13.038c-0.972-3.772-2.199-7.485-3.722-11.072c-1.587-3.739-3.558-7.274-5.554-10.806
			c-4.085-7.232-8.187-14.455-12.479-21.567c-0.16-0.002-0.318,0.001-0.461,0.003c-0.369,0.006-0.721,0.068-1.075,0.174
			c-0.652,0.195-1.246,0.552-1.79,0.955c-1.09,0.807-2.073,1.811-2.951,2.839c-0.883,1.033-1.656,2.159-2.315,3.348
			c-0.326,0.588-0.614,1.193-0.891,1.805c-0.255,0.561-0.669,1.358-1.412,1.163c-0.228-0.06-0.435-0.353-0.336-0.593
			c0.115-0.28,0.333-0.435,0.481-0.688c0.147-0.252,0.248-0.529,0.368-0.794c0.27-0.59,0.568-1.167,0.893-1.729
			c1.127-1.953,2.57-3.762,4.261-5.257c0.794-0.702,1.639-1.356,2.611-1.788c0.168-0.021,0.337-0.056,0.497-0.087
			c0.181-0.035,0.363-0.07,0.545-0.105c0.363-0.07,0.727-0.14,1.09-0.21c0.033-0.006,0.067-0.012,0.101-0.019
			c0.055,0.004,0.109,0.003,0.164,0.01c-0.007-0.011-0.011-0.026-0.017-0.037c0.411-0.074,0.824-0.166,1.062-0.554
			c0.34-0.552,0.036-1.143-0.349-1.565c-0.469-0.514-1.219-0.832-1.911-0.857c-0.107-0.004-0.221,0.01-0.333,0.016
			c-0.431-0.666-0.888-1.312-1.414-1.909c-1.088-1.237-2.394-2.256-3.848-3.025c-0.126-0.273-0.246-0.551-0.336-0.836
			c-0.06-0.394-0.099-0.79-0.16-1.183c0.35-0.086,0.699-0.172,1.049-0.258c0.396-0.098,0.697-0.114,0.676-0.572
			c-0.026-0.581-0.24-1.188-0.389-1.748c-0.145-0.546-0.304-1.089-0.476-1.627c-0.094-0.294-0.192-0.586-0.294-0.876
			c-0.047-0.132-0.104-0.415-0.241-0.493c-0.159-0.092-0.477,0.003-0.643,0.031c-0.256,0.043-0.511,0.089-0.767,0.134
			c-4.789,0.855-9.518,2.029-14.157,3.495c1.116,1.549,2.174,3.165,3.07,4.854C248.669,39.557,248.688,39.775,248.844,39.978z"/>
	</g>
</g>
</svg>
