<?xml version="1.0" encoding="utf-8"?>
<!-- Generator: Adobe Illustrator 27.5.0, SVG Export Plug-In . SVG Version: 6.00 Build 0)  -->
<svg version="1.1" xmlns="http://www.w3.org/2000/svg" xmlns:xlink="http://www.w3.org/1999/xlink" x="0px" y="0px"
	 viewBox="0 0 500 500" style="enable-background:new 0 0 500 500;" xml:space="preserve">
<g id="BACKGROUND">
	<rect style="fill:#FFFFFF;" width="500" height="500"/>
</g>
<g id="OBJECTS">
	<path style="fill:#070D23;" d="M476.95,358.85c-1.46-2.01-3.4-3.58-5.58-4.47c0,0-5.26-7.27-15.86-9.96
		c-10.61-2.69-8.49-15.87-21.89-9.17l-6.56,5.94c0,0-38.85-11.57-60.86-1.15c-22.02,10.43-25.42,10.68-25.42,10.68
		s-34.19-6.94-48.26-6.43c-14.07,0.51-14.98-14.49-40.62-6.35c-21.1,6.69-35.19-6.83-45.7-12.25l10.86-6.79
		c3.9,0.436,34.541-2.624,44.32-3.622c1.969-0.201,3.876-0.797,5.608-1.754l14.001-7.733c0.3-0.32,0.59-0.63,0.87-0.97
		c2.22-2.62,3.95-5.97,5.92-8.77c0.12-0.17,0.24-0.34,0.36-0.52c0-0.01,0.01-0.03,0.01-0.04c0.92-2.11,1.85-4.24,2.78-6.36
		c0.08-0.17,0.14-0.34,0.22-0.51c0.29-0.66,0.58-1.35,0.5-2.07c-0.06-0.6-0.38-1.21-0.91-1.37c-0.11-0.05-0.23-0.07-0.36-0.05
		c0.21-0.23,0.3-0.52,0.3-0.82c0-0.1-0.01-0.2-0.04-0.3c-0.06-0.3-0.23-0.57-0.48-0.75c-0.05-0.02-0.06-0.04-0.07-0.04
		c-0.01-0.01-0.02-0.02-0.04-0.02c-0.45-0.28-1.04-0.3-1.42,0.02c-0.09,0.06-0.18,0.15-0.24,0.28c-0.01-0.12-0.03-0.23-0.09-0.33
		c-0.23-0.56-0.97-0.87-1.6-0.73c-0.73,0.16-1.3,0.74-1.78,1.32c-1.12,1.32-2.11,2.77-3.07,4.24c-1.95,2.93-3.83,5.92-6.64,7.98
		c-0.61,0.45-1.53,0.83-2.07,0.29c1.59-1.76,3.19-3.53,4.78-5.3c0.18-0.2,0.35-0.4,0.53-0.59c0.32-0.35,0.64-0.9,0.31-1.22
		c-0.15-0.14-0.35-0.19-0.55-0.2c-2.91-0.28-5.58,1.49-7.97,3.17c-2.28,1.61-4.66,3.12-6.85,4.84c-2.12,1.66-3.13,3.86-3.81,6.34
		l-12.89-0.2c-24.25-3.98-36.26-2.12-36.26-2.12s-12.45,7.59-17.02,8.46c-4.58,0.87-18.35,5.34-18.35,5.34
		c-13.13,0.21-17.41,5.36-18.51,7.17l-7.99,0.06c-0.01-1.45-0.39-2.9-1.14-4.09c0.91,0.19,1.72,0.87,2.14,1.79
		c-0.34-3.17-2.13-6.1-4.64-7.6c1.95,0.2,3.95-0.15,5.75-1c-3.48,0.82-6.95-1.26-9.91-3.46c-0.97-0.72-1.98-1.49-3.14-1.65
		c0,0-1.32-1.12-3.55-2.13l0.04-0.19c0.14-0.74-0.28-1.46-0.93-1.61l-5.43-1.3c-0.66-0.15-1.3,0.31-1.44,1.05l-0.09,0.47
		c-3.85,0.17-8.35,1.75-13,6.32c-5.73,5.63-7.62,11.63-7.96,16.54c-8.96,0.19-18.25,0.46-26.43,0.84l-12.63,1.56
		c-1.58-0.11-3.18-0.1-4.75,0.02h-0.08c-1.75,0.13-3.48,0.39-5.19,0.77c-1.59,0.36-3.21,0.83-4.82,0.61
		c-0.92-0.12-1.81-0.46-2.73-0.58c-0.91-0.11-1.84,0.02-2.74,0.15c-4.06,0.601-8.079,1.448-12.034,2.532
		c-2.978,0.372-6.112,1.552-8.966,2.336c-0.511,0.14-1.087,0.339-1.298,0.85c-0.204,0.495,0.051,1.095,0.459,1.42
		c0.073,0.058,0.155,0.096,0.235,0.14c-0.217,0.06-0.426,0.124-0.637,0.188c-0.231,0.041-0.454,0.104-0.659,0.204
		c-0.202,0.065-0.408,0.131-0.598,0.194c-0.394,0.132-0.794,0.281-1.106,0.556c-0.312,0.275-0.521,0.703-0.427,1.108
		c0.108,0.471,0.572,0.768,1.021,0.948c0.03,0.012,0.061,0.019,0.091,0.031c-0.054,0.015-0.105,0.028-0.161,0.043
		c-0.15,0.03-0.3,0.05-0.44,0.07c-0.69,0.13-1.5,0.38-1.72,1.12c-0.26,0.85,0.46,1.69,1.2,2.01c0.81,0.35,1.71,0.39,2.57,0.35
		c0.249-0.008,0.499-0.027,0.749-0.049c-0.402,0.13-0.801,0.258-1.192,0.379c-0.784,0.241-1.578,0.486-2.275,0.919
		c-0.149,0.093-0.303,0.206-0.356,0.373c-0.071,0.223,0.06,0.458,0.203,0.643c0.571,0.742,1.436,1.252,2.362,1.392
		c0.016,0.003,0.032,0,0.048,0.003c0.26,0.075,0.534,0.112,0.808,0.061l0.38-0.071c0.376-0.046,0.75-0.115,1.122-0.209l14.251-2.651
		c0.43-0.08,0.8,0.36,0.62,0.76c-0.141,0.332-0.367,0.627-0.64,0.895c-0.07,0.018-0.13,0.042-0.202,0.059
		c-1.549,0.367-3.138,0.659-4.564,1.366c-1.426,0.708-2.701,1.919-3.04,3.474c-0.039,0.179-0.062,0.378,0.032,0.534
		c0.163,0.27,0.553,0.256,0.865,0.205c0.727-0.117,14.13-2.164,14.13-2.164c1.94-0.3,3.97-0.63,5.59-1.75
		c2.93-2.04,4.027-7.285,7.6-7.32c3.862-0.038,24,2.02,28.93,3.48c4.03,1.2,9.67,1.29,18.68,1.84c1.17,1.88,2.12,3.93,2.8,6.09
		c0.21-0.92,0.31-1.87,0.3-2.81c0.55,0.21,1.11,0.41,1.69,0.57l-0.28,1.07c-0.27,1.02,0.25,2.09,1.16,2.39l10.88,3.57
		c0.02,0.01,0.05,0.01,0.07,0.02c1.38,1.56,2.7,3.13,3.47,4.24c0.5,0.72,1.4,0.91,2.08,0.41c1-0.74,2.22-1.91,2.55-3.33
		c0,0,2.28,1.07,3.01,1.84c0.73,0.77,3.56,0.51,4.02-0.72c0,0,2.33,2.35,4.43,0.67c1.02-0.83,2.72-1.25,4.2-1.46
		c1.63-0.24,2.86-1.81,2.89-3.66l0.16-8.53c2.67,0.21,5.71,0.55,7.16,1.05c2.86,0.97,13.07,16.45,15.69,20.78
		c2.61,4.32,8.46,15.76,30.13,12.41c0,0,8.35,2.28,13.11,4.68c4.76,2.4,38.4,9.33,58.71,5.5c0,0,41.79,4.88,64.22-3.83
		c0,0,6.18-0.24,8.08-0.34c1.9-0.1,7.44-1.38,10.61-7.59c0,0,7.16-5.21,13.58-5.68c1.28-0.1,3.71-0.55,6.81-1.25
		c10.77-0.26,27.35-0.87,37.67-2.28c16.28-2.23,28.34,1.23,28.34,1.23s14.15,4.38,24.62,10.14c0.83,0.45,1.74,0.68,2.62,0.96
		c0.25,0.08,0.51,0.14,0.76,0.08c0.19-0.04,0.37-0.15,0.52-0.28c0.63-0.52,0.96-1.4,1.02-2.27c0.05-0.87-0.15-1.73-0.43-2.54
		c-0.21-0.59-0.47-1.16-0.84-1.63c-0.52-0.65-1.23-1.07-1.95-1.4c-0.78-0.37-1.59-0.67-2.4-0.96c0,0-4.71-8.66-11.05-11.43
		c3.54,0.55,6.08,1.04,6.81,1.25c3.23,0.94,5.93,2.48,9.01,3.93c0.85,0.4,1.84,0.72,2.68,0.3c0.91-0.46,1.91-3.05,1.8-4.16
		C478.13,360.72,477.58,359.72,476.95,358.85z"/>
	<path style="fill:#070D23;" d="M448.37,203.91c1.34-1.26-0.15-3.51-0.15-3.51c0.77-1.96-1.69-3.19-1.69-3.19l0.732-2.112
		c0.246-0.709,0.087-1.495-0.414-2.053c-0.6-0.669-1.557-0.874-2.376-0.506c-1.07,0.481-2.658,1.161-4.333,1.768
		c-0.423-0.37-0.905-0.707-1.462-0.755c-0.518-0.044-1.02,0.168-1.497,0.376c-1.699,0.74-3.398,1.481-5.097,2.221
		c-0.842,0.367-1.715,0.757-2.302,1.463c-0.66,0.794-0.857,1.863-1.014,2.883c-0.317,2.059-0.564,4.129-0.741,6.205
		c-0.004,0.049-0.011,0.107-0.02,0.171c-0.958,1.365-5.308,7.024-12.607,8.7c-8.33,1.91-18.56,3.93-18.56,3.93
		c0.34-3.93-3.71-17.99-3.71-17.99l1.08-9.08c2.26-15.07-6.6-21.41-6.66-21.46c0.32-2.25,3.49-5.51,6.58-8.21
		c3.09-2.69,6.1-4.82,6.1-4.82c2.29-1.58,4.59-3.17,7.06-4.47c0.74-0.39,1.52-0.77,2.11-1.37c0.59-0.59,0.98-1.47,0.75-2.28
		c-0.17-0.6-0.64-1.06-1-1.56c-1.09-1.49-1.34-3.45-1.2-5.29c0.05-0.67,0.14-1.39-0.19-1.98c-0.13-0.23-0.31-0.42-0.38-0.67
		c-0.04-0.18-0.02-0.37-0.02-0.56c0.01-0.77-0.3-1.65-0.81-2.22c0.63-0.23,1.23-0.96,1.67-1.65c0.42-0.65,0.23-1.51-0.42-1.93
		c-0.6-0.38-1.32-0.96-2.07-1.6c0.42-0.41,0.54-1.05,0.22-1.57l-5.04-8.06c-0.38-0.59-1.16-0.77-1.75-0.4l-0.07,0.04
		c-0.45-0.82-0.98-1.6-1.63-2.29c0.46,0.05,0.91,0.09,1.36,0.14c-1.81-2.84-5.53-4.3-8.79-3.45c1.01-0.95,2.05-1.94,2.64-3.2
		c-1.31,1.6-3.48,2.18-5.54,2.35c-2.05,0.16-4.14-0.01-6.15,0.47c-1.51,0.36-2.93,1.09-4.11,2.11c0.19-0.64,0.37-1.28,0.56-1.92
		c-1.42,2.68-4.91,4.35-6.85,6.72c-1.57,0.74-2.78,2.15-3.66,3.67c-0.96,1.66-1.61,3.5-2.51,5.21c-0.92,1.76-2.11,3.39-3.51,4.81
		c0.83-0.54,1.65-1.09,2.48-1.63c-0.76,2.39-0.59,5.06,0.45,7.34c-0.04-0.65,0.07-1.3,0.32-1.9c0.2,0.98,0.59,1.88,1.08,2.74
		l-0.25,0.15c-0.34,0.2-0.46,0.63-0.26,0.97l1.88,3.23c0.19,0.34,0.63,0.46,0.97,0.26l0.57-0.33c0.58,0.86,1.11,1.75,1.48,2.71
		c0-0.34,0.01-0.69,0.01-1.04c1.52,0.98,3.2,2.72,5.02,4.36l-5.4,3.52c-2.41-3.34-8-7.94-20.56-8.16
		c-19.79-0.36-25.45-0.29-27.97-0.64c-2.52-0.36-11.44-3.82-25.45-0.29c-13.17,3.31-33.55,9.58-38.55,9.59l-3.021,0.041
		c-0.84,0.011-1.672-0.232-2.348-0.73c-0.849-0.625-1.646-1.331-2.526-1.915c-1.457-0.965-3.274-1.571-5.01-1.777
		c-1.632-2.798-3.264-5.596-4.895-8.394c-0.166-0.284-0.337-0.575-0.595-0.78c-0.257-0.205-0.624-0.307-0.922-0.166
		c-0.483,0.228-0.515,0.895-0.446,1.424c0.218,1.665,0.732,3.29,1.512,4.777c0.491,0.936,1.096,1.841,1.298,2.879
		c-1.035-0.79-2.08-1.589-2.917-2.587c-0.842-1.005-1.396-2.356-1.566-3.655c-0.109-0.833-0.345-1.641-0.688-2.408
		c-0.124-0.278-0.269-0.555-0.495-0.759c-0.23-0.208-0.563-0.327-0.858-0.232c-0.429,0.139-0.611,0.649-0.639,1.099
		c-0.029,0.45,0.031,0.924-0.16,1.333c-0.106-0.903-0.336-1.792-0.682-2.633c-0.202-0.49-0.529-1.028-1.057-1.078
		c-0.388-0.037-0.757,0.224-0.957,0.558c-0.2,0.334-0.264,0.731-0.31,1.118c-0.116,0.973-0.218,2.01-0.163,2.988
		c-0.117-0.541-0.25-1.111-0.632-1.511c-0.382-0.4-1.103-0.531-1.473-0.12c-0.145,0.161-0.214,0.376-0.272,0.585
		c-0.897,3.214-0.248,6.704,1.143,9.737c1.197,2.609,2.909,4.935,4.701,7.186c-0.537-0.131-1.084-0.217-1.637-0.222
		c-1.229-0.01-2.489,0.369-3.398,1.196c-0.092,0.084-0.183,0.175-0.233,0.289c-0.124,0.28,0.037,0.62,0.285,0.8
		c0.247,0.181,0.559,0.241,0.859,0.303c0.257,0.052,0.51,0.115,0.764,0.175c0.082,0.026,0.164,0.05,0.246,0.072
		c3.737,1.038,7.393,2.371,10.921,3.982c1.007,0.46,2.022,0.948,3.116,1.116c0.822,0.127,1.659,0.069,2.488,0.01
		c2.142-0.151,4.346,0.065,7.25-0.342l49.488-4.898l7.25,1.56l-30.64,12.5c0,0-5.69,2.08-14.38,3.61c-1.26-0.68-2.46-1.56-3.79-2.09
		c-2-0.79-4.21-0.77-6.36-0.73c-3.26,0.05-6.51,0.1-9.77,0.15c-0.3,0-0.62,0-0.91-0.1c-0.34-0.13-0.6-0.39-0.87-0.63
		c-1.91-1.68-4.58-2.46-7.08-2.06c0.15-1.33-1.41-2.53-2.66-2.04c-0.57-1.16-1.14-2.32-1.71-3.48c-0.15-0.31-0.32-0.64-0.61-0.82
		c-0.28-0.17-0.64-0.18-0.98-0.18c-1.31,0.01-2.58-0.05-3.89-0.05l-1.228-1.359c-0.725-0.802-1.938-0.928-2.812-0.291l-0.7,0.51
		c-9.47-10.25-25.01-23.49-46.5-30.37c0,0-9.43-4.71-13.36-9.06c-0.97-2.44-1.93-4.91-2.95-7.28c-1.58-3.66-4.52-7.13-8.47-7.69
		c-2.77-0.39-5.5,0.71-8.25,1.2c-4.26,0.76-8.77-0.01-12.54-2.11c-2.85-1.59-5.24-3.89-8.05-5.54c-2.8-1.66-6.69-2.39-9.67-1.04
		c-2.65-1.1-5.92-0.51-8.02,1.44c-0.29,0.25-0.56,0.56-0.58,0.94c-0.05,0.6,0.51,1.05,1,1.37c16.27,10.84,31.79,21.25,48.36,31.61
		c0.525,0.375,34.744,31.259,46.098,41.51c-0.249,0.784-0.274,1.613,0.058,2.373c-1.986,0.229-3.954,0.619-5.877,1.165
		c-0.491,0.139-1.014,0.312-1.318,0.722c-0.635,0.855,0.018,2.576,0.587,4.096l-1.748,0.874c-34.67-35.97-71.46-38.02-82.59-37.74
		c-1.91-2.22-3.8-4.51-5.74-6.65c-2.67-2.96-6.57-5.3-10.49-4.56c-2.74,0.52-4.98,2.44-7.43,3.79c-3.79,2.08-8.3,2.81-12.55,2.03
		c-3.21-0.59-6.21-2.01-9.4-2.67c-3.19-0.67-7.11-0.11-9.49,2.13c-2.86-0.19-5.77,1.41-7.14,3.94c-0.19,0.33-0.34,0.71-0.24,1.08
		c0.14,0.57,0.82,0.82,1.39,0.97c18.88,5.03,36.93,9.91,55.95,14.4c0.72,0.22,1.45,0.45,2.17,0.68v0.08
		c22.56,5.58,46.75,25.67,51.86,28.11c4.5,2.13,19.14,13.35,24.55,17.54c1.32,1.03,2.95,1.56,4.63,1.5l6.46-0.19
		c1.79,8.52,9.62,11.68,9.62,11.68l24.21,0.37c0.02,0.59,0.05,1.17,0.07,1.75c1.34,0.35,2.81,0.22,4.07-0.35
		c0.46-0.2,0.89-0.46,1.37-0.57c0.58-0.13,1.18-0.03,1.77,0.08c1.06,0.2,2.15,0.45,3.07,1.03c0.66,0.42,1.25,1,2.01,1.19
		c2.08,0.5,3.94-2.2,5.97-1.52c9.68-0.12,30.05-2.93,30.05-2.93c2.06,0.17,4-0.89,5.71-2.05c0.37-0.25,0.75-0.52,1.19-0.62
		c0.44-0.1,0.89-0.04,1.33,0.02c1.57,0.23,3.14,0.46,4.71,0.69c1.1,0.16,2.19,0.32,3.3,0.39c0.44,0.03,0.88,0.04,1.31,0.13
		c0.47,0.09,0.92,0.26,1.38,0.39c1.56,0.43,3.31,0.52,4.93,0.39c2.91-0.25,3.66-2.42,3.66-2.42s35.4,1.05,49.12-3.08
		c5.86-1.77,13.73-7.89,20.82-14.32c2.94,10.42,11.21,36.19,20.95,35.19c12.19-1.25,42.64-28.14,42.64-28.14l6.11-1.55
		c0,0,5.9-4.28,7.65-6.17C451.24,206.16,448.37,203.91,448.37,203.91z"/>
</g>
</svg>
